<svg width="32" height="32" viewBox="0 0 32 32" fill="none" xmlns="http://www.w3.org/2000/svg">
<rect width="32" height="32" rx="8" fill="black"/>
<path d="M10.7092 24.4932C10.5551 24.4932 10.3888 24.4853 10.215 24.4697L10.21 24.4693L10.2049 24.468L10.0267 24.4232C9.95362 24.4234 9.88076 24.4149 9.80968 24.3979L9.80609 24.3969C9.54114 24.314 9.3634 24.1769 9.27771 23.9897C9.24364 23.9231 9.22546 23.8495 9.22461 23.7746C9.22906 23.6239 9.27183 23.4768 9.34886 23.3472L9.52144 23.0171C9.41232 22.9556 9.32488 22.8617 9.27113 22.7484C9.24135 22.6909 9.22544 22.6271 9.22467 22.5623C9.22909 22.4223 9.26916 22.2859 9.34104 22.1658L9.85296 21.1866C10.0208 20.8651 10.2073 20.5537 10.4115 20.2541C10.5657 20.0382 10.7056 19.8123 10.8304 19.5781C10.9728 19.354 11.0825 19.1106 11.1561 18.8553L11.249 18.6687C11.2788 18.6084 11.318 18.5534 11.3652 18.5057C11.5629 18.2936 11.7348 18.0588 11.8774 17.8062L12.2962 17.0601C12.5909 16.5938 12.8779 16.1197 13.1573 15.6379C13.421 15.1716 13.6925 14.6976 13.9717 14.2157C14.1269 13.9515 14.2743 13.6873 14.4139 13.423C14.5384 13.211 14.6579 12.9988 14.7723 12.7866C14.5417 12.7721 14.3152 12.7538 14.0961 12.7318L14.0933 12.7314C13.9347 12.7087 13.7747 12.6973 13.6145 12.6972C13.4545 12.6974 13.2947 12.7087 13.1363 12.7312C13.0605 12.7441 12.9837 12.7506 12.9069 12.7508C12.7945 12.7508 12.6826 12.7359 12.5742 12.7064C12.407 12.6609 12.2293 12.6221 12.046 12.5913C11.9375 12.5737 11.8398 12.5152 11.7728 12.4279L11.77 12.4245L11.7677 12.4205C11.7165 12.3346 11.682 12.2397 11.666 12.1409L11.6656 12.1372L11.6191 11.7218C11.589 11.5889 11.5732 11.4532 11.5721 11.317C11.5567 11.0865 11.5489 10.8596 11.5488 10.642C11.5332 10.4236 11.5253 10.2111 11.5253 10.0106C11.5248 9.90555 11.533 9.80062 11.5497 9.69687V9.69499C11.5511 9.68801 11.5526 9.68103 11.5543 9.67398C11.552 9.58585 11.5508 9.49893 11.5508 9.4132C11.5353 9.19576 11.5275 8.98597 11.5276 8.78378C11.527 8.68224 11.5348 8.58083 11.5508 8.48056C11.5703 8.39476 11.6102 8.31493 11.6671 8.24783C11.7127 8.17142 11.7674 8.10088 11.8301 8.03783C11.902 7.97784 11.9925 7.94491 12.086 7.94475C12.0934 7.94475 12.1008 7.94456 12.1082 7.94416C12.1148 7.9435 12.1215 7.94296 12.1281 7.9426C12.1613 7.93922 12.1939 7.93213 12.2254 7.92147H12.2807L12.2887 7.91887H12.3857C12.7182 7.89963 13.0477 7.88337 13.3742 7.87007C13.5715 7.86187 13.7676 7.85481 13.9626 7.84887C14.0599 7.84603 14.157 7.84267 14.2538 7.83877C14.6606 7.8214 15.0628 7.79462 15.4602 7.75845C15.6478 7.74444 15.8353 7.73358 16.0228 7.72592C16.2737 7.7147 16.5246 7.70912 16.7754 7.70916C16.8235 7.70739 16.8717 7.70553 16.92 7.70358C17.2734 7.68837 17.6323 7.66781 17.9968 7.64192L18.031 7.64108L18.0541 7.63942C18.4533 7.62918 18.8491 7.61553 19.2414 7.59851C19.4245 7.5904 19.6069 7.58154 19.7886 7.57192C20.3781 7.54089 20.9755 7.50987 21.5807 7.47884H21.5903L21.6344 7.47656H21.9831C22.1069 7.48686 22.2265 7.52684 22.3317 7.59312C22.3992 7.61523 22.4611 7.65162 22.5133 7.69981C22.5654 7.748 22.6067 7.80686 22.6341 7.87241C22.6631 7.9133 22.6793 7.96192 22.6806 8.01205C22.6774 8.10174 22.6536 8.18948 22.6109 8.26839C22.5334 8.39251 22.4636 8.5166 22.4014 8.64073C22.3829 8.67783 22.3637 8.71496 22.3437 8.75206C22.3502 8.75596 22.3565 8.75993 22.3627 8.76401C22.4362 8.78946 22.5036 8.83003 22.5605 8.88307C22.6175 8.9361 22.6627 9.00046 22.6934 9.07203C22.7271 9.12244 22.7456 9.18153 22.7465 9.24219C22.7434 9.34215 22.7171 9.44 22.6699 9.5281L22.6684 9.5309L22.6668 9.53356C22.5901 9.65671 22.5208 9.78012 22.4605 9.90067C22.3976 10.0267 22.3263 10.1533 22.2488 10.2779C21.9845 10.7295 21.7026 11.1922 21.411 11.6532C21.1344 12.0995 20.8612 12.561 20.5991 13.0246L20.5972 13.0275C20.3538 13.4086 20.1122 13.7994 19.8785 14.189C19.6641 14.588 19.4294 14.988 19.1812 15.3769C19.116 15.5061 19.0355 15.6269 18.9414 15.7367C18.8533 15.8388 18.7783 15.9516 18.718 16.0723L18.7143 16.0798L18.7089 16.086C18.6143 16.1979 18.5311 16.319 18.4607 16.4476L18.459 16.4505C18.3836 16.5711 18.3147 16.6942 18.2537 16.8162C18.0969 17.1767 17.9085 17.5225 17.6909 17.8497C17.474 18.1755 17.2472 18.497 17.0167 18.805L16.8788 19.0348C16.8334 19.1117 16.7965 19.1932 16.7687 19.278L16.7672 19.2825L16.7651 19.2867L16.6734 19.4704H16.7521C17.2017 19.4861 17.659 19.4939 18.1241 19.4938C18.5732 19.5093 19.0303 19.5171 19.4956 19.517C19.852 19.5327 20.2084 19.556 20.5648 19.587L21.6342 19.6336C21.882 19.6492 22.0679 19.719 22.1917 19.8431C22.3313 19.9672 22.4165 20.1534 22.4476 20.4017C22.463 20.6968 22.4785 20.9997 22.4941 21.3102C22.4979 21.3856 22.4998 21.461 22.4999 21.5363C22.5052 21.5647 22.5098 21.594 22.5136 21.624V21.6264V21.6288C22.5318 21.9796 22.5468 22.2684 22.56 22.5374C22.5756 22.853 22.5598 23.1695 22.513 23.482L22.5125 23.4852L22.5116 23.4882C22.4682 23.7021 22.3757 23.9029 22.2415 24.0749C22.1738 24.1493 22.0899 24.2071 21.9963 24.2438C21.8827 24.2888 21.7634 24.3178 21.6418 24.3303C21.5171 24.3458 21.3915 24.3537 21.2659 24.354C21.141 24.3695 21.0153 24.3773 20.8895 24.3773H14.5184C14.1799 24.3696 13.8379 24.3657 13.5029 24.3657C13.1678 24.3657 12.8302 24.3696 12.4991 24.3773H12.4976C12.2976 24.3773 12.104 24.385 11.9218 24.4002H11.919H11.9162C11.7252 24.4011 11.5346 24.4163 11.3459 24.4459C11.158 24.4775 10.9679 24.4934 10.7774 24.4936L10.7092 24.4932ZM10.035 24.2902H10.0433L10.0512 24.2922L10.232 24.3377C10.4 24.3527 10.5605 24.3601 10.7092 24.3601H10.7976C11.1464 24.2283 11.4301 23.9558 11.7531 23.7623C12.1156 23.5448 12.5277 23.4268 12.9345 23.3117C13.0503 23.2792 13.122 23.2585 13.2319 23.2278V23.2216C13.3353 23.1903 13.4339 23.1448 13.5248 23.0863C13.1596 23.0856 12.7967 23.0895 12.4363 23.0979C12.2348 23.0979 12.0409 23.1056 11.8547 23.1212C11.6598 23.1218 11.4653 23.1374 11.2728 23.1678C11.1763 23.1839 11.0798 23.1959 10.9831 23.2036C10.8604 23.2248 10.7397 23.2561 10.6222 23.2972C10.3602 23.3921 10.1236 23.5583 9.85024 23.6094C9.68189 23.6487 9.51714 23.7021 9.35769 23.769C9.35769 23.7709 9.35769 23.7728 9.35769 23.7746C9.35863 23.8293 9.37225 23.8829 9.39751 23.9314L9.39845 23.9334C9.43073 24.003 9.47838 24.0644 9.53782 24.1129C9.54981 24.1104 9.56178 24.1078 9.57373 24.1051C9.77543 24.0585 9.96187 23.9592 10.1627 23.9101C10.4291 23.845 10.7128 23.8702 10.9755 23.7909C11.3556 23.6763 11.6603 23.352 12.0547 23.3064C12.0978 23.3014 12.1759 23.2927 12.2014 23.3277C11.8297 23.4136 11.5529 23.7223 11.2048 23.8791C10.8729 24.0283 10.486 24.0339 10.1664 24.2091C10.1208 24.2339 10.0772 24.2623 10.0336 24.2905L10.035 24.2902ZM14.1024 23.372C13.8707 23.6262 13.5787 23.8177 13.2534 23.9286V23.9353C12.8726 24.0451 12.5151 24.1453 12.1407 24.2524C12.257 24.2468 12.3766 24.2439 12.4984 24.2439C12.8116 24.2367 13.1307 24.2327 13.4475 24.2322C13.8916 24.0897 14.3754 24.0139 14.7986 23.8326C14.9862 23.7522 15.1712 23.6632 15.3519 23.5677C15.526 23.4627 15.7126 23.3799 15.9072 23.3212C16.16 23.2599 16.4369 23.2907 16.6704 23.1768C16.716 23.1537 16.7599 23.1274 16.8018 23.0981H15.0827C15.0577 23.1124 15.0331 23.1277 15.009 23.1442C14.8743 23.2365 14.7604 23.3653 14.6055 23.4168C14.5919 23.3387 14.6537 23.2694 14.7121 23.2161C14.7564 23.1755 14.8016 23.1362 14.8479 23.0979H14.4607L14.3412 23.0953C14.2602 23.1859 14.1861 23.2831 14.102 23.3714L14.1024 23.372ZM20.0223 24.2436C20.2679 24.1017 20.4902 23.9092 20.7353 23.7623C21.0981 23.5448 21.5106 23.4268 21.9174 23.3117C22.0401 23.2771 22.1135 23.2564 22.236 23.2216C22.2994 23.2032 22.3608 23.1787 22.4194 23.1484C22.4335 22.9762 22.4379 22.8033 22.4327 22.6306C22.4212 22.6363 22.4096 22.6418 22.3978 22.6472C22.3559 22.6663 22.3129 22.683 22.2691 22.6972C22.2466 22.7335 22.2212 22.768 22.1932 22.8003C22.1102 22.8884 22.0042 22.9515 21.8872 22.9824C21.7885 23.0175 21.6861 23.0407 21.5819 23.0515C21.4585 23.0671 21.3341 23.0749 21.2097 23.0749C21.0861 23.0903 20.9617 23.0981 20.8372 23.0981H20.5835C20.4632 23.1202 20.3412 23.1413 20.2178 23.1614C20.0096 23.1875 19.8042 23.2331 19.6043 23.2976C19.3433 23.3924 19.1066 23.5587 18.8326 23.6097C18.5567 23.6609 18.3248 23.8026 18.0484 23.8521C17.863 23.8854 17.6736 23.8933 17.4909 23.9385C17.2737 23.9923 17.0727 24.0972 16.8573 24.1606C16.7205 24.198 16.5813 24.2259 16.4407 24.244H17.8809C17.957 24.2151 18.0351 24.192 18.1146 24.1749C18.2607 24.1443 18.4115 24.1394 18.5568 24.1053C18.758 24.0587 18.9444 23.9594 19.1457 23.9103C19.4121 23.8452 19.6955 23.8704 19.9581 23.7911C20.3378 23.6765 20.6434 23.3522 21.0373 23.3066C21.0802 23.3016 21.1585 23.2929 21.1843 23.3279C20.8126 23.4138 20.5352 23.7225 20.1876 23.8792C19.8552 24.0285 19.4686 24.0341 19.149 24.2093C19.1291 24.2203 19.1091 24.232 19.0892 24.2441L20.0223 24.2436ZM15.142 24.2436C15.1631 24.2347 15.184 24.225 15.2046 24.2146C15.3672 24.1322 15.5032 24.0022 15.6692 23.9286C15.8909 23.8295 16.1365 23.8407 16.3829 23.8513C16.5873 23.8712 16.7936 23.8585 16.9941 23.8135C17.1194 23.7779 17.236 23.7168 17.3581 23.6715C17.5319 23.4925 17.7242 23.3324 17.9318 23.1941C17.9849 23.1609 18.0392 23.1299 18.0932 23.0982H17.1773C17.1084 23.1405 17.0423 23.1878 16.974 23.2312C16.818 23.3259 16.6559 23.4105 16.489 23.4843C16.3386 23.5602 16.1819 23.623 16.0209 23.6722C15.8896 23.7081 15.754 23.7264 15.6246 23.7662C15.4646 23.8242 15.3089 23.8935 15.1585 23.9735C15.0475 24.0267 14.9376 24.0824 14.8278 24.138C14.7517 24.1767 14.674 24.2118 14.5951 24.244L15.142 24.2436ZM21.2165 24.2256C21.2295 24.2242 21.2424 24.2226 21.2554 24.221L21.2594 24.2205H21.2636C21.3852 24.2204 21.5067 24.2128 21.6274 24.1977H21.6278C21.8734 24.1686 22.0467 24.0979 22.1435 23.9869C22.1526 23.9765 22.1614 23.9656 22.17 23.9541C21.8446 24.0471 21.5354 24.1335 21.2161 24.2249L21.2165 24.2256ZM18.1613 23.5468C18.1693 23.5459 18.1771 23.5454 18.1846 23.5444C18.4469 23.5151 18.7003 23.4317 18.9289 23.2995C19.051 23.2322 19.1732 23.165 19.2955 23.0979H18.6112C18.4481 23.2336 18.2974 23.3836 18.1609 23.5461L18.1613 23.5468ZM9.46561 23.4111C9.44792 23.4427 9.43188 23.4753 9.41755 23.5086C9.60259 23.4639 9.78049 23.3935 9.94602 23.2994C10.0129 23.2626 10.0799 23.2258 10.1469 23.189L9.96958 23.1447C9.89906 23.1454 9.82871 23.1376 9.76011 23.1212C9.72099 23.109 9.68397 23.0957 9.64906 23.0813L9.62975 23.0971L9.46561 23.4111ZM16.1028 19.2603C16.1228 19.318 16.1591 19.3685 16.2074 19.4058C16.218 19.3972 16.2286 19.3879 16.239 19.3778C16.3435 19.2695 16.4708 19.1861 16.6117 19.1334C16.6387 19.1245 16.6659 19.1161 16.6932 19.1079C16.7145 19.059 16.7389 19.0116 16.7662 18.9658L16.9076 18.7302L16.9096 18.7275L16.9321 18.6974C16.8071 18.7561 16.6817 18.8137 16.552 18.861C16.4081 18.9135 16.2605 18.9533 16.1139 18.9972C16.0932 19.0375 16.0815 19.0818 16.0795 19.1271C16.0775 19.1724 16.0853 19.2175 16.1024 19.2595L16.1028 19.2603ZM16.9629 17.5368L16.8235 17.7696C16.7868 17.831 16.7555 17.8955 16.7298 17.9624C16.7552 17.9529 16.7808 17.9442 16.8068 17.9363C16.9506 17.8979 17.0977 17.8729 17.2462 17.8618C17.3478 17.8513 17.448 17.8376 17.5483 17.8252C17.5595 17.8084 17.5707 17.7916 17.5819 17.7748C17.6926 17.6086 17.7957 17.4369 17.8906 17.2612C17.728 17.2959 17.5654 17.3306 17.4027 17.3653C17.2779 17.3919 17.1516 17.4191 17.0267 17.4507C17.0052 17.4792 16.9838 17.5077 16.9625 17.5362L16.9629 17.5368ZM17.3773 16.9633C17.648 16.8922 17.913 16.8009 18.1701 16.6901C18.224 16.5868 18.2833 16.4832 18.3469 16.3812C18.3584 16.3605 18.3701 16.3402 18.382 16.3201C18.1494 16.434 17.9074 16.5271 17.6585 16.5985L17.6187 16.6092C17.539 16.7278 17.4585 16.8456 17.3769 16.9625L17.3773 16.9633ZM17.8802 16.1871C18.0622 16.1219 18.2405 16.047 18.4145 15.9627C18.519 15.912 18.6212 15.8587 18.7227 15.8051C18.7597 15.7512 18.7995 15.6994 18.8421 15.6498C18.9299 15.5474 19.0049 15.4347 19.0654 15.3141L19.0669 15.3109L19.0688 15.308C19.0935 15.2693 19.118 15.2305 19.1425 15.1917C19.0342 15.2522 18.9362 15.3299 18.8259 15.3854C18.6287 15.4851 18.4003 15.5117 18.1884 15.5723C18.0963 15.7823 17.9933 15.9872 17.8798 16.1863L17.8802 16.1871ZM18.66 14.812C18.5821 14.9035 18.5121 15.0014 18.4505 15.1046C18.486 15.0991 18.5214 15.0925 18.5567 15.0843C18.7579 15.0378 18.9442 14.9386 19.1455 14.8895C19.2128 14.8736 19.2809 14.8618 19.3496 14.8543C19.4703 14.6527 19.5864 14.45 19.698 14.2461C19.6665 14.2555 19.6353 14.2658 19.6044 14.277C19.3434 14.3719 19.1066 14.5382 18.8327 14.589C18.8175 14.5918 18.8024 14.5949 18.7875 14.5983C18.7396 14.6659 18.6969 14.737 18.6596 14.8111L18.66 14.812ZM19.1246 14.1135C19.1108 14.1411 19.0962 14.1683 19.0809 14.1952C19.213 14.1225 19.3451 14.0498 19.4773 13.9771C19.5796 13.9177 19.6858 13.8652 19.7952 13.8201C19.8566 13.7967 19.9195 13.7771 19.9833 13.7613C20.0586 13.6381 20.1344 13.5152 20.2109 13.3926C19.9573 13.4658 19.691 13.5123 19.4416 13.5987C19.3387 13.7713 19.2329 13.9427 19.1243 14.1129L19.1246 14.1135ZM14.842 12.6573L14.8563 12.6303C14.9316 12.5251 15.0016 12.4162 15.0659 12.3039C15.1433 12.1794 15.2132 12.0628 15.2754 11.9539C15.2946 11.9226 15.3073 11.8877 15.3128 11.8514C15.3183 11.8151 15.3166 11.778 15.3076 11.7423C15.2499 11.8161 15.1934 11.891 15.1339 11.9636C15.1018 12.0035 15.068 12.0422 15.0338 12.0803C14.9303 12.1944 14.819 12.3011 14.7005 12.3995C14.6612 12.4296 14.6244 12.463 14.5905 12.4992C14.5515 12.5431 14.5131 12.5875 14.4751 12.6322C14.5957 12.6411 14.7179 12.6492 14.8417 12.6566L14.842 12.6573ZM20.5427 11.761C20.3524 12.0586 20.1669 12.3562 19.9861 12.6538C20.225 12.5674 20.4964 12.5515 20.752 12.4937C20.8808 12.2728 21.0114 12.0538 21.1436 11.8368C21.1343 11.8457 21.1254 11.8545 21.1167 11.8634C21.0994 11.8865 21.0742 11.9024 21.046 11.908C21.0394 11.908 21.0329 11.9066 21.027 11.9037C21.0483 11.7678 21.1597 11.6679 21.2313 11.5513C21.2934 11.4502 21.3276 11.3319 21.4039 11.2401C21.4406 11.1997 21.4801 11.1621 21.5222 11.1274C21.5714 11.0835 21.6184 11.0371 21.6628 10.9884C21.6699 10.9807 21.6769 10.9729 21.6839 10.965C21.8392 10.711 21.9904 10.4583 22.1364 10.209L22.1374 10.2074C22.1763 10.145 22.2135 10.0821 22.2489 10.0188C22.2448 10.0204 22.2407 10.0219 22.2365 10.0234C22.1209 10.065 22.0077 10.1133 21.8975 10.168C21.7972 10.2175 21.7043 10.281 21.6217 10.3566C21.5988 10.3778 21.576 10.4004 21.5543 10.4244C21.4986 10.4863 21.4488 10.5536 21.3989 10.6204C21.1722 10.9251 21.0035 11.3133 20.7024 11.5447C20.6813 11.5609 20.66 11.5768 20.6386 11.5925C20.6062 11.6481 20.5741 11.7041 20.5423 11.7603L20.5427 11.761ZM12.9075 12.6174C12.9774 12.6173 13.047 12.6114 13.1159 12.5997H13.1175C13.2824 12.5761 13.4487 12.5642 13.6153 12.5641C13.756 12.5642 13.8966 12.5727 14.0363 12.5896C14.1611 12.4993 14.2828 12.406 14.4013 12.3054C14.4551 12.2601 14.5086 12.2137 14.5595 12.1649C14.6454 12.0853 14.7197 11.9941 14.7802 11.8938C14.7924 11.8726 14.8039 11.8507 14.815 11.8289C14.8261 11.8071 14.836 11.7851 14.8465 11.7628C14.8517 11.7519 14.8568 11.7404 14.862 11.7296C14.8779 11.6963 14.8937 11.6631 14.9115 11.631C14.9344 11.5896 14.9598 11.5496 14.9875 11.5113C14.753 11.5 14.5224 11.4847 14.2958 11.4653C14.2621 11.485 14.2298 11.507 14.1992 11.5312C14.1425 11.5796 14.0894 11.6321 14.0403 11.6883C13.8826 11.8603 13.7207 12.0278 13.5585 12.1956C13.4627 12.2942 13.3786 12.3899 13.2535 12.4404V12.4487C13.0956 12.5034 12.9466 12.5631 12.7896 12.612C12.8287 12.6156 12.868 12.6172 12.9072 12.6168L12.9075 12.6174ZM11.7504 11.696L11.7512 11.6997L11.7516 11.7032L11.7981 12.1204C11.8111 12.2006 11.8389 12.2777 11.8799 12.3478C11.9076 12.3827 11.9423 12.4113 11.9818 12.4319C12.0042 12.4235 12.0263 12.4145 12.0481 12.4048C12.1733 12.3489 12.2865 12.2702 12.4059 12.2035C12.6611 12.0603 12.9592 12.0427 13.2319 11.9375V11.9291C13.3703 11.8732 13.4452 11.7462 13.5683 11.6616C13.6402 11.612 13.7209 11.5767 13.7916 11.5262C13.8332 11.4951 13.8725 11.4612 13.9093 11.4245C13.686 11.4011 13.4609 11.3997 13.2373 11.4205C13.2005 11.4246 13.1636 11.4293 13.1268 11.4345C13.0865 11.4412 13.0467 11.4462 13.0073 11.4493L12.9887 11.4514C12.8871 11.4913 12.7876 11.5367 12.6908 11.5872C12.6447 11.6166 12.5962 11.6419 12.5458 11.663C12.5078 11.6745 12.4693 11.6837 12.4303 11.6907C12.3168 11.7185 12.2139 11.7785 12.1338 11.8636C12.1166 11.8869 12.0914 11.9028 12.063 11.9083C12.0566 11.9083 12.0502 11.9068 12.0444 11.904C12.0651 11.768 12.1772 11.6682 12.2487 11.5516C12.2839 11.4939 12.3103 11.4307 12.3406 11.3701C12.2282 11.344 12.1128 11.3209 11.9942 11.301C11.9841 11.2994 11.9743 11.2973 11.9646 11.2949C11.8946 11.3872 11.8132 11.4703 11.7225 11.5423C11.7293 11.5923 11.7385 11.6432 11.7501 11.6953L11.7504 11.696ZM21.7321 9.78311C21.9149 9.69879 22.0337 9.56087 22.2365 9.47882C22.311 9.45299 22.3871 9.43202 22.4643 9.41599C22.5059 9.40542 22.5476 9.39465 22.589 9.38275C22.6056 9.33747 22.6146 9.28974 22.6155 9.24151C22.6143 9.20442 22.602 9.16856 22.5802 9.13852L22.5761 9.13219L22.5735 9.12554C22.5482 9.05914 22.5041 9.00161 22.4466 8.95998C22.378 9.00832 22.3083 9.05465 22.2367 9.09794C22.1868 9.12826 22.1385 9.15828 22.0907 9.1882C21.9737 9.38449 21.854 9.58255 21.7317 9.78239L21.7321 9.78311Z" fill="#E321D7"/>
</svg>
