<svg width="256" height="256" viewBox="0 0 256 256" fill="none" xmlns="http://www.w3.org/2000/svg">
<path d="M0 64C0 28.6538 28.6538 0 64 0H192C227.346 0 256 28.6538 256 64V192C256 227.346 227.346 256 192 256H64C28.6538 256 0 227.346 0 192V64Z" fill="black"/>
<path d="M85.6739 195.946C84.4404 195.946 83.1103 195.883 81.7202 195.758L81.6797 195.755L81.6389 195.744L80.2137 195.386C79.629 195.387 79.0461 195.319 78.4774 195.183L78.4488 195.176C76.3291 194.512 74.9072 193.415 74.2217 191.917C73.9491 191.385 73.8037 190.796 73.7969 190.197C73.8324 188.991 74.1746 187.814 74.7909 186.778L76.1715 184.137C75.2986 183.645 74.599 182.894 74.1691 181.987C73.9308 181.527 73.8035 181.017 73.7974 180.498C73.8327 179.379 74.1532 178.287 74.7283 177.327L78.8237 169.493C80.1667 166.921 81.6586 164.43 83.2919 162.032C84.5257 160.305 85.6452 158.499 86.6429 156.625C87.7825 154.832 88.6601 152.885 89.2489 150.843L89.9922 149.35C90.2301 148.867 90.544 148.427 90.9219 148.045C92.5033 146.349 93.8786 144.47 95.019 142.45L98.37 136.481C100.727 132.75 103.023 128.957 105.258 125.103C107.368 121.373 109.54 117.581 111.774 113.726C113.015 111.612 114.194 109.498 115.311 107.384C116.307 105.688 117.263 103.991 118.179 102.293C116.333 102.177 114.521 102.03 112.769 101.854L112.747 101.851C111.478 101.67 110.198 101.579 108.916 101.578C107.636 101.579 106.358 101.67 105.09 101.85C104.484 101.953 103.87 102.005 103.255 102.006C102.356 102.007 101.461 101.887 100.593 101.652C99.2557 101.287 97.8348 100.977 96.3682 100.731C95.5001 100.589 94.7184 100.122 94.1822 99.4232L94.1599 99.3957L94.1419 99.3642C93.7322 98.6767 93.4559 97.9177 93.3278 97.1273L93.3247 97.098L92.953 93.7741C92.712 92.7114 92.5858 91.6256 92.5766 90.5358C92.4534 88.6921 92.3912 86.8766 92.3902 85.1361C92.2659 83.3886 92.2027 81.689 92.2027 80.0851C92.1987 79.2444 92.2639 78.4049 92.3975 77.575V77.5599C92.4087 77.5041 92.4209 77.4482 92.4347 77.3919C92.4156 76.6868 92.4061 75.9915 92.4061 75.3056C92.2822 73.5661 92.2204 71.8877 92.2207 70.2702C92.216 69.458 92.278 68.6466 92.4061 67.8445C92.5628 67.1581 92.882 66.5195 93.3369 65.9827C93.7013 65.3714 94.1393 64.8071 94.641 64.3027C95.2156 63.8227 95.9397 63.5593 96.6879 63.558C96.7473 63.558 96.8066 63.5565 96.8657 63.5533C96.9185 63.548 96.9716 63.5437 97.0251 63.5408C97.29 63.5137 97.5511 63.4571 97.8035 63.3717H98.2458L98.3095 63.351H99.0857C101.746 63.1971 104.382 63.067 106.994 62.9606C108.572 62.895 110.141 62.8385 111.701 62.791C112.479 62.7683 113.256 62.7414 114.031 62.7102C117.285 62.5712 120.502 62.357 123.682 62.0676C125.182 61.9555 126.683 61.8687 128.183 61.8073C130.19 61.7176 132.197 61.6729 134.204 61.6733C134.588 61.6591 134.974 61.6442 135.36 61.6286C138.187 61.507 141.059 61.3425 143.974 61.1354L144.248 61.1286L144.433 61.1154C147.627 61.0334 150.793 60.9243 153.931 60.7881C155.396 60.7232 156.855 60.6523 158.309 60.5754C163.025 60.3271 167.804 60.0789 172.645 59.8307H172.723L173.075 59.8125H175.865C176.855 59.8949 177.812 60.2147 178.654 60.745C179.193 60.9218 179.689 61.213 180.106 61.5985C180.523 61.984 180.853 62.4549 181.073 62.9793C181.305 63.3064 181.434 63.6954 181.445 64.0964C181.419 64.8139 181.228 65.5158 180.887 66.1471C180.268 67.1401 179.709 68.1328 179.211 69.1258C179.063 69.4226 178.909 69.7196 178.75 70.0165C178.801 70.0477 178.852 70.0794 178.902 70.1121C179.49 70.3157 180.029 70.6402 180.484 71.0645C180.94 71.4888 181.302 72.0037 181.548 72.5762C181.817 72.9795 181.965 73.4523 181.972 73.9375C181.947 74.7372 181.737 75.52 181.359 76.2248L181.347 76.2472L181.335 76.2685C180.721 77.2536 180.166 78.2409 179.684 79.2054C179.181 80.2134 178.611 81.2267 177.99 82.2236C175.876 85.8361 173.621 89.5375 171.288 93.2255C169.075 96.7959 166.889 100.488 164.793 104.196L164.778 104.22C162.831 107.268 160.897 110.395 159.028 113.512C157.313 116.704 155.435 119.904 153.449 123.015C152.928 124.048 152.284 125.015 151.531 125.893C150.826 126.711 150.226 127.613 149.744 128.578L149.714 128.638L149.671 128.688C148.914 129.583 148.249 130.552 147.686 131.581L147.672 131.604C147.069 132.569 146.517 133.553 146.029 134.53C144.775 137.413 143.268 140.18 141.527 142.798C139.792 145.404 137.977 147.976 136.134 150.44L135.031 152.279C134.668 152.893 134.372 153.545 134.149 154.224L134.138 154.26L134.121 154.293L133.387 155.763H134.017C137.613 155.889 141.272 155.951 144.992 155.95C148.585 156.075 152.243 156.137 155.965 156.136C158.816 156.261 161.667 156.448 164.519 156.696L173.074 157.069C175.056 157.193 176.543 157.752 177.534 158.745C178.65 159.738 179.332 161.227 179.581 163.213C179.704 165.574 179.828 167.997 179.953 170.482C179.983 171.085 179.998 171.688 179.999 172.29C180.042 172.518 180.078 172.752 180.109 172.992V173.011V173.03C180.254 175.837 180.374 178.147 180.48 180.299C180.605 182.824 180.479 185.356 180.104 187.856L180.1 187.882L180.093 187.906C179.745 189.617 179.006 191.223 177.932 192.599C177.39 193.194 176.719 193.657 175.971 193.951C175.061 194.31 174.107 194.543 173.134 194.642C172.136 194.766 171.132 194.829 170.127 194.832C169.128 194.956 168.123 195.019 167.116 195.019H116.147C113.439 194.956 110.704 194.926 108.023 194.926C105.343 194.926 102.642 194.956 99.9931 195.019H99.9804C98.3811 195.019 96.8317 195.08 95.3742 195.202H95.3519H95.3296C93.8019 195.209 92.2768 195.331 90.7674 195.567C89.2644 195.82 87.7431 195.947 86.2191 195.949L85.6739 195.946ZM80.2801 194.322H80.3465L80.4097 194.338L81.856 194.701C83.1999 194.822 84.4838 194.881 85.6732 194.881H86.381C89.1713 193.826 91.4407 191.647 94.0244 190.099C96.9252 188.359 100.221 187.415 103.476 186.494C104.402 186.234 104.976 186.068 105.855 185.823V185.772C106.682 185.522 107.471 185.158 108.198 184.69C105.277 184.685 102.374 184.716 99.4904 184.783C97.878 184.783 96.3269 184.845 94.8374 184.97C93.2785 184.974 91.7223 185.099 90.1824 185.342C89.4107 185.471 88.6381 185.567 87.8647 185.629C86.8834 185.798 85.9178 186.049 84.9777 186.378C82.8814 187.137 80.989 188.467 78.8019 188.875C77.4552 189.19 76.1371 189.617 74.8616 190.152C74.8616 190.167 74.8616 190.182 74.8616 190.197C74.869 190.634 74.978 191.063 75.1801 191.451L75.1876 191.467C75.4459 192.024 75.8271 192.515 76.3026 192.903C76.3985 192.883 76.4942 192.862 76.5898 192.841C78.2035 192.468 79.695 191.673 81.3017 191.281C83.4331 190.76 85.7025 190.962 87.8036 190.327C90.8445 189.41 93.2828 186.816 96.4378 186.451C96.7824 186.411 97.4068 186.341 97.6113 186.621C94.6378 187.309 92.423 189.778 89.638 191.032C86.9832 192.227 83.8881 192.271 81.3309 193.672C80.9666 193.871 80.6173 194.098 80.2689 194.324L80.2801 194.322ZM112.819 186.976C110.965 189.01 108.629 190.541 106.027 191.429V191.482C102.98 192.361 100.121 193.162 97.1254 194.019C98.0557 193.974 99.0124 193.951 99.9873 193.951C102.493 193.894 105.045 193.862 107.58 193.858C111.133 192.717 115.003 192.111 118.389 190.66C119.89 190.017 121.37 189.306 122.815 188.541C124.208 187.701 125.7 187.039 127.257 186.57C129.28 186.079 131.495 186.326 133.364 185.414C133.728 185.23 134.079 185.02 134.414 184.785H120.662C120.461 184.899 120.265 185.022 120.072 185.154C118.995 185.892 118.083 186.922 116.844 187.335C116.735 186.71 117.229 186.155 117.697 185.729C118.051 185.404 118.413 185.089 118.783 184.784H115.686L114.73 184.763C114.082 185.487 113.489 186.265 112.816 186.971L112.819 186.976ZM160.178 193.949C162.143 192.814 163.922 191.274 165.882 190.099C168.785 188.359 172.085 187.415 175.339 186.494C176.321 186.217 176.908 186.051 177.888 185.772C178.395 185.625 178.886 185.429 179.355 185.187C179.468 183.81 179.503 182.427 179.461 181.045C179.369 181.09 179.277 181.135 179.183 181.177C178.847 181.33 178.504 181.464 178.153 181.578C177.973 181.868 177.769 182.144 177.546 182.403C176.881 183.107 176.033 183.612 175.098 183.859C174.308 184.14 173.488 184.325 172.655 184.412C171.668 184.537 170.673 184.599 169.678 184.599C168.689 184.723 167.694 184.785 166.698 184.785H164.668C163.705 184.962 162.73 185.131 161.743 185.291C160.076 185.5 158.433 185.865 156.835 186.38C154.746 187.14 152.852 188.469 150.661 188.878C148.454 189.287 146.599 190.421 144.387 190.817C142.904 191.083 141.389 191.146 139.927 191.508C138.19 191.938 136.582 192.778 134.859 193.285C133.764 193.584 132.65 193.807 131.525 193.952H143.048C143.656 193.721 144.281 193.536 144.917 193.399C146.085 193.155 147.292 193.115 148.454 192.842C150.064 192.47 151.555 191.675 153.165 191.282C155.297 190.762 157.564 190.963 159.665 190.329C162.703 189.412 165.147 186.818 168.298 186.453C168.642 186.413 169.268 186.343 169.474 186.623C166.501 187.31 164.282 189.78 161.501 191.034C158.841 192.228 155.749 192.273 153.192 193.674C153.033 193.762 152.873 193.856 152.714 193.953L160.178 193.949ZM121.136 193.949C121.305 193.877 121.472 193.8 121.636 193.717C122.937 193.058 124.026 192.017 125.353 191.429C127.127 190.636 129.092 190.726 131.063 190.81C132.699 190.97 134.349 190.868 135.953 190.508C136.955 190.223 137.888 189.734 138.865 189.372C140.255 187.94 141.794 186.66 143.454 185.553C143.879 185.287 144.313 185.039 144.746 184.786H137.418C136.867 185.124 136.339 185.502 135.792 185.85C134.544 186.608 133.247 187.284 131.912 187.874C130.708 188.481 129.456 188.984 128.167 189.378C127.117 189.665 126.032 189.811 124.997 190.13C123.717 190.594 122.471 191.148 121.268 191.788C120.38 192.213 119.501 192.659 118.623 193.104C118.014 193.413 117.392 193.694 116.761 193.952L121.136 193.949ZM169.732 193.805C169.836 193.793 169.939 193.781 170.043 193.768L170.075 193.764H170.109C171.082 193.763 172.054 193.702 173.019 193.582H173.022C174.987 193.349 176.373 192.783 177.148 191.896C177.221 191.812 177.292 191.724 177.36 191.633C174.757 192.377 172.283 193.068 169.729 193.799L169.732 193.805ZM145.29 188.375C145.355 188.367 145.417 188.363 145.477 188.355C147.575 188.12 149.602 187.453 151.431 186.396C152.408 185.857 153.386 185.32 154.364 184.784H148.89C147.585 185.869 146.379 187.069 145.287 188.369L145.29 188.375ZM75.7249 187.289C75.5834 187.542 75.455 187.802 75.3404 188.069C76.8208 187.712 78.2439 187.148 79.5681 186.395C80.1034 186.101 80.6389 185.806 81.1748 185.512L79.7566 185.157C79.1925 185.164 78.6297 185.1 78.0809 184.97C77.7679 184.872 77.4718 184.765 77.1925 184.651L77.038 184.777L75.7249 187.289ZM128.823 154.082C128.982 154.544 129.273 154.948 129.659 155.247C129.744 155.178 129.829 155.103 129.912 155.022C130.748 154.156 131.767 153.488 132.894 153.067C133.109 152.996 133.327 152.928 133.546 152.863C133.716 152.472 133.911 152.093 134.13 151.726L135.261 149.841L135.277 149.82L135.457 149.579C134.457 150.049 133.453 150.51 132.416 150.888C131.265 151.308 130.084 151.627 128.911 151.978C128.746 152.3 128.652 152.655 128.636 153.017C128.62 153.379 128.682 153.74 128.819 154.076L128.823 154.082ZM135.703 140.295L134.588 142.156C134.294 142.648 134.044 143.164 133.839 143.699C134.041 143.623 134.246 143.554 134.454 143.491C135.605 143.183 136.782 142.983 137.97 142.894C138.783 142.81 139.584 142.701 140.386 142.602C140.476 142.467 140.566 142.333 140.655 142.199C141.541 140.869 142.365 139.495 143.125 138.09C141.824 138.367 140.523 138.645 139.222 138.923C138.223 139.135 137.213 139.353 136.213 139.606C136.041 139.834 135.87 140.062 135.7 140.289L135.703 140.295ZM139.018 135.706C141.184 135.137 143.304 134.407 145.36 133.521C145.792 132.694 146.266 131.865 146.776 131.05C146.868 130.884 146.961 130.721 147.056 130.561C145.195 131.472 143.259 132.217 141.268 132.788L140.95 132.874C140.312 133.823 139.668 134.765 139.015 135.7L139.018 135.706ZM143.042 129.497C144.498 128.975 145.924 128.376 147.316 127.701C148.152 127.296 148.97 126.869 149.781 126.441C150.077 126.01 150.396 125.595 150.737 125.198C151.439 124.379 152.039 123.477 152.523 122.513L152.536 122.487L152.55 122.464C152.748 122.154 152.944 121.844 153.14 121.533C152.274 122.017 151.49 122.639 150.607 123.083C149.029 123.881 147.202 124.094 145.507 124.579C144.771 126.258 143.947 127.898 143.038 129.491L143.042 129.497ZM149.28 118.496C148.657 119.228 148.096 120.011 147.604 120.837C147.888 120.792 148.171 120.74 148.453 120.675C150.063 120.302 151.554 119.509 153.164 119.116C153.702 118.989 154.247 118.895 154.797 118.835C155.762 117.222 156.691 115.6 157.584 113.969C157.332 114.044 157.083 114.127 156.835 114.216C154.747 114.975 152.853 116.305 150.662 116.712C150.54 116.734 150.419 116.759 150.3 116.786C149.917 117.327 149.575 117.896 149.277 118.489L149.28 118.496ZM152.997 112.908C152.886 113.129 152.77 113.347 152.647 113.562C153.704 112.98 154.761 112.398 155.818 111.817C156.637 111.341 157.486 110.922 158.361 110.561C158.853 110.374 159.356 110.217 159.867 110.091C160.469 109.105 161.075 108.121 161.687 107.141C159.658 107.726 157.528 108.098 155.533 108.79C154.71 110.17 153.863 111.542 152.994 112.903L152.997 112.908ZM118.736 101.258L118.85 101.042C119.453 100.201 120.013 99.3295 120.527 98.4312C121.147 97.4354 121.705 96.5021 122.203 95.6315C122.357 95.3806 122.458 95.1018 122.502 94.8112C122.547 94.5206 122.533 94.2239 122.461 93.9387C121.999 94.5287 121.547 95.1277 121.071 95.7086C120.814 96.0278 120.544 96.3378 120.27 96.6421C119.443 97.5552 118.552 98.4086 117.604 99.1957C117.289 99.437 116.995 99.7039 116.724 99.9936C116.412 100.345 116.105 100.7 115.801 101.057C116.766 101.128 117.743 101.193 118.734 101.253L118.736 101.258ZM164.341 94.0878C162.819 96.4688 161.335 98.8497 159.888 101.231C161.8 100.539 163.971 100.412 166.016 99.9494C167.047 98.1823 168.091 96.4306 169.149 94.6943C169.075 94.7652 169.003 94.8361 168.934 94.907C168.795 95.0919 168.594 95.219 168.368 95.2639C168.315 95.2642 168.263 95.2526 168.216 95.2299C168.386 94.1421 169.278 93.3434 169.851 92.4104C170.347 91.6013 170.621 90.6551 171.231 89.9205C171.525 89.5978 171.841 89.2965 172.178 89.0192C172.571 88.668 172.947 88.297 173.303 87.9075C173.359 87.8455 173.415 87.7828 173.471 87.7197C174.713 85.6882 175.924 83.6664 177.091 81.6721L177.1 81.6592C177.411 81.1598 177.708 80.657 177.992 80.1506C177.959 80.1628 177.926 80.1752 177.892 80.1869C176.967 80.5204 176.061 80.9067 175.18 81.3443C174.377 81.7402 173.635 82.2479 172.974 82.8524C172.79 83.0226 172.608 83.203 172.434 83.395C171.988 83.8903 171.59 84.429 171.191 84.9631C169.378 87.4005 168.028 90.5062 165.619 92.3574C165.451 92.4869 165.28 92.6142 165.109 92.7398C164.85 93.1852 164.593 93.6327 164.339 94.0824L164.341 94.0878ZM103.26 100.939C103.819 100.938 104.376 100.891 104.927 100.798H104.94C106.259 100.609 107.59 100.514 108.922 100.513C110.048 100.513 111.173 100.581 112.29 100.716C113.289 99.9941 114.263 99.2478 115.211 98.4429C115.641 98.0807 116.069 97.7097 116.476 97.3193C117.163 96.6826 117.758 95.9525 118.242 95.1502C118.339 94.981 118.431 94.8059 118.52 94.6315C118.609 94.457 118.688 94.2808 118.772 94.1026C118.814 94.0149 118.854 93.9228 118.896 93.8367C119.023 93.5707 119.15 93.3047 119.292 93.0478C119.475 92.7166 119.678 92.397 119.9 92.0904C118.024 92 116.179 91.8772 114.366 91.7226C114.097 91.88 113.839 92.0561 113.594 92.2494C113.14 92.6365 112.715 93.0565 112.323 93.5063C111.061 94.8824 109.765 96.2226 108.468 97.5647C107.701 98.3536 107.029 99.1189 106.028 99.5232V99.5897C104.765 100.027 103.573 100.505 102.317 100.896C102.63 100.925 102.944 100.938 103.258 100.934L103.26 100.939ZM94.0032 93.5681L94.0097 93.5974L94.0128 93.626L94.3844 96.9629C94.4891 97.6047 94.7111 98.2215 95.0392 98.7827C95.2609 99.0615 95.5386 99.2906 95.8542 99.4551C96.0337 99.3881 96.2107 99.3159 96.3852 99.2382C97.3866 98.7914 98.292 98.1619 99.2472 97.6278C101.289 96.482 103.673 96.3416 105.855 95.5V95.4325C106.962 94.9857 107.562 93.9697 108.546 93.293C109.122 92.8962 109.767 92.6136 110.333 92.2094C110.666 91.961 110.98 91.6893 111.274 91.3961C109.488 91.2086 107.687 91.1979 105.898 91.3642C105.604 91.3968 105.309 91.434 105.014 91.4759C104.692 91.5298 104.374 91.5692 104.058 91.594L103.91 91.6114C103.096 91.9306 102.301 92.2932 101.526 92.6977C101.158 92.9325 100.77 93.1355 100.366 93.3042C100.063 93.3956 99.7542 93.4697 99.4421 93.526C98.5348 93.748 97.711 94.2284 97.0702 94.9091C96.933 95.0951 96.7309 95.2225 96.5042 95.266C96.4527 95.266 96.4019 95.2544 96.3555 95.232C96.5212 94.1441 97.4174 93.3458 97.9893 92.4127C98.2712 91.9515 98.4825 91.4457 98.7247 90.9605C97.8259 90.7516 96.9022 90.5675 95.9535 90.4083C95.8732 90.3948 95.7944 90.3784 95.7172 90.3592C95.1566 91.0975 94.5059 91.7626 93.7802 92.3387C93.8344 92.738 93.9078 93.1458 94.0006 93.5621L94.0032 93.5681ZM173.856 78.2648C175.319 77.5903 176.27 76.487 177.892 75.8305C178.488 75.6239 179.097 75.4561 179.715 75.3279C180.047 75.2434 180.38 75.1572 180.712 75.062C180.845 74.6998 180.917 74.3179 180.924 73.9321C180.914 73.6354 180.816 73.3485 180.642 73.1082L180.609 73.0575L180.588 73.0043C180.385 72.4731 180.033 72.0129 179.573 71.6799C179.024 72.0666 178.466 72.4372 177.894 72.7835C177.494 73.0261 177.108 73.2662 176.726 73.5056C175.79 75.0759 174.832 76.6604 173.854 78.2591L173.856 78.2648Z" fill="#E321D7"/>
</svg>
