<svg width="967" height="480" viewBox="0 0 967 480" fill="none" xmlns="http://www.w3.org/2000/svg">
<path d="M754.398 321.433C751.611 321.433 748.651 321.312 745.598 321.079C742.042 321.071 739.313 319.879 737.492 317.544L737.47 317.514L737.45 317.484C736.392 315.863 735.846 313.962 735.882 312.027C735.882 311.026 736.004 310.028 736.243 309.057C736.472 306.522 736.953 304.016 737.678 301.577C737.923 300.762 738.153 299.945 738.369 299.125C738.256 298.998 738.147 298.864 738.041 298.725C737.091 297.267 736.604 295.557 736.641 293.818C736.642 292.871 736.759 291.929 736.99 291.011C737.211 288.517 737.68 286.051 738.39 283.65C739.093 281.313 739.678 278.974 740.143 276.636C741.779 270.794 743.298 264.95 744.701 259.105C746.104 253.26 747.74 247.416 749.609 241.574C751.009 237.135 752.176 232.695 753.109 228.253C754.048 223.578 755.1 218.904 756.265 214.229C756.732 212.591 757.198 211.071 757.665 209.669L759.065 204.763C760.002 201.256 761.054 197.867 762.221 194.595C763.168 191.26 763.872 187.861 764.327 184.425C765.026 180.685 765.844 177.062 766.779 173.556C767.948 169.816 769 166.194 769.935 162.691L773.441 150.063C774.64 145.939 775.461 141.714 775.895 137.441C776.177 136.369 776.529 135.316 776.949 134.29L777.649 131.485C779.986 125.17 781.977 118.733 783.611 112.201L788.519 92.5649C789.218 89.2922 790.035 86.02 790.969 82.748C792.14 79.4773 793.192 76.0886 794.126 72.582C795.762 65.334 797.516 58.0877 799.387 50.8437C801.254 43.8317 803.123 36.7009 804.995 29.4516C805.477 27.7814 806.062 26.1431 806.748 24.5458C807.249 22.8303 807.956 21.1817 808.854 19.6367C809.853 17.4926 811.432 15.6711 813.412 14.3779C815.038 13.3848 816.881 12.8013 818.783 12.6777C819.25 12.6343 819.732 12.6127 820.231 12.6127C823.501 12.6127 826.654 12.4957 829.689 12.2617C830.04 12.235 830.392 12.2048 830.746 12.1708C833.522 11.8953 836.28 11.4609 839.006 10.8705C843.436 9.89699 847.93 9.23894 852.453 8.90082C853.274 8.84082 854.091 8.79216 854.906 8.75482C860.276 8.52082 865.647 8.40375 871.018 8.40375L881.487 7.70355C882.648 7.55822 883.797 7.43619 884.935 7.33685C887.448 7.11485 889.905 7.00323 892.308 7.00189C892.709 6.79492 893.151 6.67761 893.602 6.65863C893.662 6.65863 893.721 6.65375 893.781 6.65375C895.634 6.5855 897.465 7.07297 899.038 8.05365C900.826 9.45585 902.264 11.254 903.238 13.3066C903.486 14.2757 903.839 15.2149 904.292 16.1069C904.539 17.0757 904.891 18.0144 905.342 18.9067C909.075 35.0167 912.811 51.0115 916.55 66.8915C920.289 82.7715 924.142 98.7663 928.11 114.875C929.742 122.58 931.493 130.402 933.363 138.342C934.997 146.283 936.864 154.107 938.963 161.813C941.296 171.386 943.515 180.959 945.619 190.533C947.486 200.106 949.704 209.68 952.273 219.253C953.44 223.688 954.606 228.008 955.773 232.213C956.942 236.648 957.994 240.968 958.929 245.171C959.862 249.842 960.913 254.395 962.08 258.831C963.013 263.264 964.064 267.817 965.232 272.489C965.477 273.522 965.595 274.583 965.583 275.645C965.583 275.828 965.578 276.016 965.569 276.209C965.536 277.175 965.42 278.137 965.222 279.083C965.101 280.206 964.747 281.292 964.183 282.271C964.808 285.032 965.483 287.871 966.203 290.751C966.467 291.865 966.594 293.006 966.582 294.151C966.568 295.264 966.447 296.374 966.219 297.464C966.026 299.385 965.185 301.183 963.835 302.564C962.447 303.923 960.635 304.764 958.701 304.95C953.283 305.629 947.501 306.336 941.535 307.05L924.7 309.156C922.391 309.391 920.111 309.848 917.889 310.52C915.522 311.238 913.063 311.606 910.589 311.614H909.15H909.114C905.624 311.364 903.053 310.614 901.253 309.327C899.397 308.009 898.122 305.64 897.353 302.085C896.889 300.225 896.536 298.34 896.295 296.439C895.828 294.574 895.474 292.682 895.233 290.775V290.745C894.772 285.889 894.07 280.972 893.148 276.13L893.14 276.084C892.44 271.214 891.504 266.184 890.353 261.128C889.841 259.251 889.484 257.336 889.283 255.401C889.031 253.394 888.805 251.701 888.596 250.234C888.275 248.979 887.646 247.825 886.766 246.875C885.984 246.098 884.976 245.587 883.887 245.416C881.673 245.42 879.461 245.303 877.26 245.067C875.101 245.064 872.944 245.177 870.798 245.407C867.974 245.878 865.117 246.115 862.254 246.118C859.621 246.11 856.993 246.337 854.401 246.797C850.442 247.733 846.389 248.211 842.321 248.222C838.315 248.453 834.299 248.57 830.382 248.57C829.659 248.555 828.939 248.657 828.248 248.87L828.093 248.923H825.604C824.917 249.097 824.261 249.376 823.659 249.751C823.107 250.303 822.605 250.903 822.159 251.544C821.704 252.697 821.259 253.938 820.821 255.244C820.405 256.466 820.066 257.713 819.805 258.978C818.647 264.763 817.468 270.77 816.299 276.837V276.843C815.146 282.608 814.089 288.602 813.156 294.661L813.144 294.746L813.118 294.825C812.429 296.896 811.847 298.877 811.387 300.707L811.373 300.761L811.353 300.813C810.67 302.654 810.22 304.573 810.011 306.526L810.005 306.584L809.993 306.643C809.491 309.48 807.991 312.045 805.764 313.873L805.718 313.905C803.48 315.384 801.017 316.492 798.426 317.187L798.406 317.193C797.41 317.444 796.388 317.571 795.361 317.574H795.24L795.123 317.546C794.741 317.451 794.349 317.403 793.956 317.403C793.564 317.403 793.173 317.451 792.793 317.546L792.731 317.56L792.667 317.568C788.502 318.033 784.156 318.62 779.751 319.315C775.321 320.014 770.858 320.484 766.379 320.722C762.865 321.19 759.324 321.426 755.779 321.429L754.398 321.433ZM754.398 319.433H755.798C759.268 319.43 762.734 319.199 766.173 318.74L766.213 318.734H766.253C770.016 318.539 773.841 318.164 777.653 317.618C780.984 315.238 784.46 313.012 788.398 311.998C791.525 311.198 794.792 311.198 797.975 310.71C801.242 310.153 804.441 309.258 807.523 308.04C807.735 307.455 807.911 306.859 808.052 306.253C808.153 305.348 808.301 304.448 808.494 303.559C807.259 304 806.007 304.401 804.732 304.746C802.464 305.382 800.16 305.882 797.832 306.246C795.841 306.54 793.822 306.689 791.862 307.146C789.464 307.81 787.129 308.684 784.884 309.759C778.638 312.477 772.247 314.847 765.739 316.859C765.727 316.859 765.713 316.84 765.719 316.829C766.368 314.929 768.276 313.729 770.186 313.095C772.096 312.461 774.158 312.182 775.986 311.305C779.635 309.572 781.902 305.669 785.573 303.958C787.541 303.193 789.612 302.721 791.717 302.558C798.018 301.689 804.196 300.088 810.125 297.787C810.451 296.654 810.815 295.481 811.214 294.278C811.459 292.688 811.712 291.105 811.973 289.527C810.578 289.944 809.252 290.566 808.038 291.372L807.682 291.617C807.623 291.723 807.564 291.829 807.503 291.933C806.893 293.081 806.043 294.084 805.01 294.874C802.859 296.297 800.492 297.362 798 298.029C797.082 298.261 796.14 298.378 795.193 298.378C794.274 298.145 793.312 298.145 792.393 298.378C791.882 298.435 791.37 298.494 790.856 298.555C789.543 298.941 788.252 299.403 786.992 299.938C782.041 302.08 777.723 306.197 772.722 308.226C770.313 309.045 767.852 309.708 765.357 310.207C759.277 311.781 754.257 315.422 749.304 319.307C751.048 319.39 752.754 319.433 754.398 319.433ZM739.098 316.346C739.634 317.032 740.3 317.607 741.057 318.037C749.495 313.095 757.292 307.208 765.322 301.637C762.088 302.037 758.833 302.238 755.574 302.237H754.174C753.098 302.237 752.005 302.219 750.896 302.185C746.537 305.985 742.868 310.937 738.163 314.239C738.358 314.987 738.674 315.699 739.098 316.346ZM909.246 309.626H910.612C911.834 309.624 913.053 309.524 914.259 309.326C916.431 307.468 918.318 305.169 920.905 303.962C922.877 303.198 924.949 302.726 927.057 302.562C935.526 301.394 943.76 298.904 951.457 295.183C955.646 293.156 959.582 290.854 963.709 288.939C963.316 287.328 962.939 285.736 962.576 284.163C961.563 284.958 960.364 285.481 959.092 285.684C958.621 285.977 958.142 286.256 957.646 286.505C953.138 288.776 947.541 288.512 943.38 291.377C940.317 293.676 936.897 295.457 933.256 296.648C929.593 297.684 925.821 298.433 922.323 299.942C917.366 302.084 913.056 306.201 908.051 308.23C907.23 308.558 906.388 308.834 905.532 309.057C906.75 309.356 907.992 309.547 909.243 309.625L909.246 309.626ZM940.066 304.744C938.673 305.121 937.266 305.469 935.857 305.761L941.316 305.078C946.085 304.507 950.729 303.941 955.167 303.39C957.745 302.523 959.913 301.902 962.329 301.271L962.442 301.161C963.489 300.087 964.131 298.684 964.262 297.191L964.272 297.121C964.479 296.148 964.589 295.159 964.603 294.165C964.603 294.131 964.603 294.098 964.603 294.065C956.349 297.551 948.736 302.39 940.062 304.742L940.066 304.744ZM898.273 296.021L898.289 296.079L898.295 296.14C898.529 297.988 898.872 299.821 899.325 301.629L899.331 301.659C899.388 301.925 899.449 302.184 899.512 302.435C903.043 299.967 906.612 297.549 910.288 295.286C912.534 293.762 914.985 292.566 917.568 291.734C920.868 290.845 924.368 291.123 927.734 290.509C929.467 290.164 931.159 289.639 932.783 288.943L924.569 289.969C922.193 290.21 919.846 290.679 917.559 291.369C915.286 292.059 912.924 292.413 910.549 292.419H909.149C907.221 292.332 905.32 291.94 903.515 291.257C901.777 292.635 899.947 293.893 898.037 295.022C898.108 295.355 898.186 295.688 898.269 296.02L898.273 296.021ZM896.717 285.766C897.366 285.582 898.017 285.407 898.671 285.224C898.526 284.732 898.392 284.209 898.271 283.657C898.15 283.171 898.036 282.685 897.931 282.2L897.411 282.462C897.056 282.642 896.698 282.816 896.338 282.985C896.471 283.911 896.596 284.837 896.713 285.765L896.717 285.766ZM810.441 281.966C810.261 282.446 810.096 282.935 809.947 283.432C810.49 283.274 811.039 283.132 811.596 283.018C812.115 282.909 812.636 282.818 813.159 282.747C813.501 280.88 813.854 279.029 814.217 277.194C813.347 277.498 812.461 277.757 811.564 277.97C811.133 279.354 810.757 280.685 810.436 281.963L810.441 281.966ZM895.141 275.788C895.308 276.664 895.467 277.542 895.62 278.423C896.077 278.245 896.53 278.062 896.979 277.872L897.162 277.793C896.732 276.028 896.403 274.241 896.175 272.439C896.119 271.852 896.06 271.265 895.997 270.679C895.514 270.993 895.002 271.261 894.468 271.479C894.709 272.924 894.931 274.359 895.135 275.785L895.141 275.788ZM812.58 273.55L812.659 273.541C813.452 273.462 814.23 273.347 814.994 273.197C815.203 272.121 815.411 271.048 815.62 269.978C814.583 271.009 813.589 272.08 812.637 273.191C812.612 273.308 812.598 273.427 812.574 273.547L812.58 273.55ZM894.273 270.34C894.626 269.676 895.105 269.087 895.682 268.605L895.754 268.54C895.511 266.525 895.229 264.509 894.907 262.493C894.269 262.949 893.645 263.426 893.037 263.931C893.485 266.077 893.895 268.212 894.267 270.337L894.273 270.34ZM815.345 258.151C814.887 260.439 814.447 262.745 814.026 265.069C814.335 264.84 814.635 264.6 814.926 264.349C815.715 263.639 816.464 262.886 817.17 262.094C817.403 260.919 817.637 259.752 817.87 258.594C818.147 257.248 818.508 255.92 818.95 254.62C819.137 254.058 819.327 253.507 819.52 252.968C818.325 253.751 817.141 254.576 815.869 255.438C815.688 256.337 815.512 257.24 815.339 258.147L815.345 258.151ZM890.561 249.761L890.581 249.827L890.591 249.895C890.805 251.395 891.034 253.113 891.291 255.164V255.176C891.321 255.448 891.354 255.718 891.391 255.984C892.094 255.303 892.792 254.617 893.485 253.925C893.018 251.111 892.479 248.259 891.866 245.371C891.41 245.904 890.955 246.437 890.502 246.971L889.814 247.781C890.118 248.417 890.366 249.078 890.555 249.757L890.561 249.761ZM816.181 253.827L820.03 251.584C820.142 251.289 820.255 251 820.368 250.716L820.408 250.616L820.466 250.528C821.018 249.718 821.646 248.964 822.342 248.275L822.413 248.205L822.496 248.148C823.343 247.6 824.278 247.199 825.259 246.963L825.38 246.933H827.8C828.647 246.688 829.526 246.571 830.407 246.584C832.742 246.584 835.114 246.541 837.498 246.457C842.857 243.493 849.836 244.213 855.544 241.675C857.426 240.835 859.129 239.654 860.928 238.651C864.773 236.495 869.268 236.235 873.375 234.651V234.528C875.465 233.679 876.591 231.773 878.447 230.498C879.529 229.756 880.747 229.228 881.81 228.461C882.694 227.776 883.531 227.033 884.316 226.237C884.183 226.207 884.045 226.18 883.904 226.158C881.679 226.162 879.454 226.044 877.242 225.804C875.681 225.804 874.173 225.857 872.716 225.962C870.282 227.244 867.636 228.056 865.216 229.388C864.52 229.826 863.79 230.206 863.032 230.525C862.463 230.693 861.885 230.833 861.301 230.942C859.591 231.358 858.039 232.261 856.832 233.542C856.572 233.889 856.192 234.126 855.766 234.209C855.666 234.21 855.568 234.185 855.48 234.137C855.801 232.1 857.475 230.596 858.559 228.847C858.926 228.226 859.258 227.585 859.553 226.927C857.722 227.022 855.899 227.233 854.095 227.557C853.176 227.773 852.257 227.965 851.338 228.131C851.093 228.343 850.842 228.548 850.585 228.746C846.469 231.758 842.166 234.505 837.701 236.971C831.834 240.386 825.959 243.797 820.076 247.205C819.099 247.772 818.119 248.339 817.137 248.905C816.816 250.535 816.495 252.175 816.175 253.823L816.181 253.827ZM877.395 243.079L877.449 243.085C879.623 243.321 881.809 243.435 883.996 243.429H884.081L884.162 243.441C884.828 243.55 885.478 243.743 886.095 244.018C887.672 242.865 889.218 241.673 890.73 240.409C890.52 239.358 890.348 238.232 890.215 237.03C889.979 235.158 889.746 233.404 889.515 231.769C889.206 230.599 888.675 229.499 887.951 228.529C887.094 229.254 886.295 230.044 885.56 230.892C883.184 233.475 880.74 235.998 878.294 238.517C876.855 240.006 875.586 241.443 873.704 242.203V242.326C872.662 242.688 871.648 243.061 870.639 243.426C872.865 243.189 875.101 243.072 877.339 243.076L877.395 243.079ZM819.895 236.432C819.466 237.694 819.117 238.982 818.847 240.289C818.744 240.805 818.64 241.323 818.536 241.842L818.788 241.669C821.883 239.527 824.835 237.164 828.031 235.169C831.084 233.269 834.346 231.723 837.373 229.785C837.697 229.578 838.018 229.367 838.336 229.152C835.642 229.26 832.948 229.315 830.254 229.316C829.423 229.3 828.595 229.417 827.802 229.664H825.348C824.475 229.872 823.644 230.227 822.89 230.714C822.301 231.3 821.763 231.935 821.283 232.614C820.82 233.767 820.354 235.041 819.898 236.427L819.895 236.432ZM843.013 160.079C845.235 160.99 847.611 161.466 850.013 161.479H861.922C863.432 161.711 864.968 161.711 866.478 161.479C866.891 161.438 867.278 161.382 867.639 161.311C866.156 156.394 864.739 151.344 863.413 146.284L858.513 130.867C858.064 129.287 857.604 127.907 857.149 126.767L857.129 126.713C856.678 125.363 856.248 124.178 855.821 123.102L855.382 122.665L855.068 122.508C855.019 122.512 854.972 122.526 854.929 122.55L854.816 122.663L854.673 122.735C854.608 122.766 854.545 122.802 854.484 122.842L854.438 122.942C853.525 124.997 852.719 127.068 852.038 129.102C851.587 131.355 851.001 133.578 850.283 135.76C849.59 138.998 848.76 142.192 847.821 145.249L845.01 154.385L844.998 154.417C844.275 156.302 843.598 158.187 842.967 160.051L843.013 160.079ZM869.544 160.694C869.947 160.496 870.313 160.231 870.627 159.91C870.214 159.997 869.801 160.087 869.389 160.179L869.544 160.694ZM869.309 159.912C869.564 159.912 869.819 159.886 870.072 159.864C870.288 159.84 870.502 159.82 870.716 159.813C870.783 159.737 870.845 159.658 870.904 159.577L870.927 159.539C871.705 157.972 872.067 156.231 871.976 154.484C870.607 154.801 869.276 155.094 867.976 155.369C868.413 156.889 868.857 158.402 869.308 159.908L869.309 159.912ZM839.861 157.277C840.23 157.893 840.696 158.446 841.24 158.915C841.713 157.53 842.213 156.137 842.74 154.738C841.546 154.958 840.321 155.102 839.113 155.291C839.179 156.006 839.437 156.691 839.86 157.272L839.861 157.277ZM866.936 151.677C868.273 151.298 869.624 150.877 871.082 150.357C870.928 149.906 870.758 149.462 870.571 149.027C870.05 147.633 869.594 146.305 869.201 145.043C867.939 145.402 866.684 145.758 865.437 146.111C865.924 147.965 866.423 149.819 866.935 151.67L866.936 151.677ZM840.908 144.671C840.351 146.003 839.922 147.385 839.627 148.798C841.804 147.557 843.9 146.179 845.903 144.674V144.666C846.326 143.292 846.726 141.892 847.103 140.466C845.747 141.392 844.317 142.208 842.829 142.904C842.315 143.135 841.793 143.343 841.263 143.533C841.142 143.909 841.024 144.286 840.907 144.664L840.908 144.671ZM844.06 135.561C843.439 137.182 842.85 138.804 842.292 140.426C844.21 139.501 846.042 138.341 847.892 137.275C848.045 136.618 848.193 135.958 848.334 135.295L848.344 135.241L848.362 135.189C848.804 133.857 849.203 132.464 849.555 131.026C848.122 131.292 846.675 131.549 845.215 131.797L844.06 135.561ZM860.428 130.308L862.342 136.321C863.652 135.902 864.971 135.509 866.293 135.127C865.61 132.694 864.951 130.26 864.316 127.827C862.875 128.186 861.435 128.531 859.997 128.861C860.141 129.319 860.284 129.799 860.427 130.301L860.428 130.308ZM847.315 124.945C848.894 124.644 850.444 124.212 851.951 123.653C852.143 123.192 852.34 122.733 852.543 122.274C852.623 121.997 852.764 121.74 852.954 121.522C853.144 121.305 853.379 121.132 853.643 121.015C854.105 120.653 854.681 120.468 855.267 120.495H855.503L856.559 121.023L856.674 121.138L856.809 121.273C856.976 121.191 857.144 121.111 857.309 121.033C858.716 120.402 860.161 119.859 861.636 119.408L859.344 112.208C859.277 111.976 859.211 111.749 859.144 111.527C856.091 113.044 853.744 115.671 850.886 117.544C850.255 117.956 849.603 118.334 848.931 118.676C848.447 120.814 847.908 122.901 847.314 124.938L847.315 124.945ZM853.515 104.045C853.056 105.079 852.626 106.112 852.223 107.145C853.357 106.863 854.465 106.487 855.536 106.021C856.036 105.8 856.514 105.555 856.99 105.295C856.842 104.902 856.695 104.521 856.548 104.152L855.848 103.452L855.148 103.103C854.822 103.085 854.498 103.169 854.222 103.344C854.179 103.374 854.139 103.407 854.101 103.444C853.964 103.51 853.833 103.588 853.71 103.679C853.656 103.721 853.61 103.775 853.577 103.836C853.544 103.897 853.524 103.964 853.518 104.033L853.515 104.045ZM379.115 312.673C376.083 312.21 372.995 311.615 369.939 310.912L369.901 310.902C367.36 310.261 365.032 308.962 363.151 307.138L363.099 307.088L363.057 307.031C361.525 304.938 360.503 302.517 360.073 299.959L360.057 299.87V194.052H360.426V176.729H360.756V151.608C360.756 147.208 360.875 142.722 361.109 138.273V98.6728V98.6328L361.476 94.2206V80.2919L361.986 74.1987C362.099 68.8587 362.156 63.4649 362.156 58.0869V34.6196C362.159 33.6355 362.277 32.6553 362.507 31.6987V28.5737L362.525 28.4828V28.4619V16.1328C362.527 15.1886 362.645 14.2484 362.876 13.3329V10.1777C363.575 6.43567 365.095 3.74771 367.434 2.11371C369.592 0.626544 372.178 -0.111325 374.795 0.0136117H376.812C379.383 0.478612 381.95 0.833905 384.517 1.0639L392.223 1.76361C401.537 2.17958 410.741 3.94906 419.545 7.01654C428.321 10.0087 436.866 13.6378 445.113 17.874C453.617 22.2669 461.316 28.0687 467.881 35.0336C474.312 41.9976 479.628 49.9136 483.642 58.5009C485.266 61.7479 486.557 65.151 487.493 68.6586C488.417 72.1129 489.118 75.623 489.593 79.1669C490.42 84.8605 490.697 90.6201 490.42 96.3666C490.477 96.7533 490.532 97.1395 490.584 97.5248C491.523 103.974 491.763 110.507 491.298 117.008V117.045C490.98 119.896 490.497 122.727 489.852 125.523C490.119 125.609 490.385 125.685 490.652 125.752C491.821 126.219 492.873 126.685 493.808 127.152C500.165 129.166 506.185 132.116 511.671 135.907C517.278 139.649 522.551 143.867 527.432 148.517L530.232 151.317C531.126 152.43 531.945 153.601 532.684 154.823C536.627 162.466 539.907 170.434 542.489 178.638C545.349 186.879 547 195.491 547.389 204.206C547.393 206.165 547.241 208.121 546.934 210.056C547.692 214.22 548.179 218.429 548.389 222.656V222.706C548.398 225.727 548.038 228.738 547.317 231.673C546.798 234.44 546.085 237.167 545.185 239.834V239.846C543.351 245.158 540.974 250.268 538.092 255.094L538.072 255.124C535.007 259.837 531.459 264.219 527.487 268.198C526.741 269.179 525.862 270.052 524.876 270.791L522.039 272.916C514.059 278.408 505.712 283.347 497.057 287.698C488.407 292.136 479.478 296.011 470.328 299.298L470.308 299.304C464.064 301.39 457.716 303.154 451.29 304.587C445.023 305.982 438.527 307.279 431.99 308.45L420.726 310.56C416.967 311.027 413.184 311.263 409.396 311.267C405.912 311.267 402.396 311.384 398.956 311.614H398.922H398.89C395.427 311.617 391.973 311.962 388.577 312.644L388.523 312.652C386.967 312.885 385.396 313.006 383.823 313.017C382.248 313.028 380.675 312.909 379.119 312.661L379.115 312.673ZM379.423 310.696H379.437C380.887 310.93 382.353 311.044 383.822 311.037C385.291 311.026 386.756 310.912 388.209 310.696C390.719 310.196 393.262 309.871 395.817 309.723C400.201 308.487 404.417 306.597 408.703 304.99C416.217 302.173 419.546 301.474 427.328 299.515C429.023 298.991 430.773 298.667 432.543 298.548C433.456 298.524 435.912 298.07 444.069 297.607C450.122 297.264 456.069 294.651 462.059 295.54C462.507 295.59 462.959 295.587 463.407 295.532C463.739 295.493 464.073 295.477 464.407 295.484C455.164 297.406 446.177 300.375 437.212 303.342C434.497 304.169 431.842 305.181 429.265 306.371C428.686 306.655 428.116 306.957 427.549 307.264L431.631 306.498C438.143 305.335 444.612 304.041 450.852 302.651C457.206 301.235 463.483 299.492 469.658 297.43C472.5 296.41 475.33 295.327 478.149 294.183C478.694 293.695 479.226 293.202 479.749 292.711C481.423 290.882 483.284 289.234 485.302 287.794C488.78 285.674 493.12 285.471 496.751 283.627C499.193 282.388 501.242 280.433 503.751 279.327C505.855 278.46 508.113 278.031 510.388 278.067C513.917 275.934 517.417 273.677 520.888 271.299L523.673 269.207C524.371 268.685 525.006 268.082 525.565 267.413C524.845 267.886 524.135 268.375 523.409 268.836C521.057 270.26 518.615 271.531 516.1 272.642C513.832 273.783 511.47 274.728 509.041 275.469C507.07 276.009 505.027 276.283 503.072 276.882C500.663 277.755 498.317 278.797 496.054 279.999C494.38 280.799 492.729 281.637 491.069 282.474C483.595 286.248 475.169 287.793 467.03 289.748C458.946 291.695 452.48 292.756 444.393 294.048C443.131 294.285 441.851 294.421 440.567 294.455C440.392 294.455 440.206 294.455 440.025 294.443C439.985 294.44 439.946 294.424 439.916 294.398C439.885 294.372 439.863 294.336 439.854 294.297C439.844 294.257 439.848 294.216 439.864 294.179C439.88 294.141 439.907 294.11 439.942 294.09C443.833 291.905 448.015 290.286 452.363 289.28C457.365 288.291 462.272 286.872 467.03 285.04C474.54 282.078 483.213 281.055 490.63 277.877C493.469 276.668 496.248 275.33 498.974 273.893C501.598 272.314 504.408 271.069 507.34 270.187C511.146 269.264 515.319 269.728 518.84 268.015C520.454 267.227 521.828 266.026 523.388 265.138C525.371 264.159 527.413 263.305 529.502 262.581C529.753 262.477 530.003 262.369 530.251 262.259C532.374 259.774 534.339 257.159 536.136 254.43C528.165 258.551 519.895 261.958 511.061 263.257C508.956 263.567 506.79 263.768 504.651 264.05L504.558 264.102C501.754 265.676 498.937 267.17 496.108 268.584C487.485 273.014 478.584 276.88 469.461 280.158C463.244 282.234 456.925 283.989 450.528 285.415C447.995 285.977 445.446 286.52 442.883 287.044C442.147 287.612 441.456 288.244 440.675 288.753C437.834 290.593 434.211 290.532 430.902 291.239C429.325 291.6 427.773 292.068 426.259 292.639C416.547 296.089 407.997 302.056 398.053 304.751C395.787 305.386 393.485 305.887 391.16 306.251C389.165 306.545 387.142 306.694 385.185 307.151C382.787 307.817 380.452 308.691 378.207 309.764C377.798 309.943 377.387 310.12 376.975 310.295C377.798 310.431 378.616 310.561 379.427 310.685L379.423 310.696ZM370.408 308.967C371.008 309.105 371.611 309.239 372.216 309.367C374.404 307.503 376.298 305.185 378.897 303.967C380.869 303.203 382.941 302.732 385.049 302.567C393.518 301.398 401.752 298.908 409.449 295.188C411.699 294.099 413.877 292.93 416.049 291.788C413.634 291.982 411.22 292.08 408.805 292.08C405.864 292.08 402.922 292.162 399.979 292.326C397.311 294.214 394.365 295.675 391.247 296.656C387.584 297.692 383.81 298.441 380.313 299.95C375.756 301.919 371.744 305.557 367.237 307.709C368.244 308.245 369.309 308.664 370.412 308.956L370.408 308.967ZM362.054 299.318C364.101 297.938 366.177 296.598 368.28 295.296C369.889 294.257 371.57 293.336 373.312 292.54C372.055 292.29 370.799 292.02 369.542 291.731C367.649 291.243 365.873 290.379 364.321 289.191C363.556 289.728 362.804 290.291 362.054 290.854V299.318ZM526.729 249.049C526.031 249.979 525.204 250.805 524.273 251.502L521.473 253.602L521.073 253.875C521.322 253.808 521.57 253.74 521.817 253.67C528.322 251.871 534.601 249.34 540.536 246.127C541.55 243.885 542.47 241.577 543.296 239.203C543.878 237.456 544.371 235.74 544.77 234.073C542.134 235.385 539.37 236.421 536.521 237.166C533.648 241.429 530.37 245.404 526.733 249.037L526.729 249.049ZM435.658 227.335C436.591 228.034 438.11 228.267 440.214 228.035H441.965L444.065 227.335C447.31 226.666 450.483 225.682 453.537 224.396C455.397 223.583 457.204 222.651 458.945 221.608C463.609 218.809 467.959 215.516 471.918 211.787L473.318 210.387C473.425 210.225 473.533 210.069 473.641 209.919C473.38 209.644 473.105 209.372 472.815 209.104C471.105 207.594 469.278 206.223 467.35 205.004L467.314 204.982L467.278 204.956C465.561 203.657 463.646 202.644 461.606 201.956C458.204 200.819 454.735 199.893 451.219 199.184C448.691 198.677 446.119 198.42 443.54 198.416C442.692 198.416 441.829 198.444 440.973 198.501H440.908C437.144 198.501 434.252 199.043 432.314 200.113C432.012 200.316 431.761 200.585 431.58 200.9C431.937 203.508 432.011 206.148 431.802 208.772C431.626 210.655 431.583 212.548 431.675 214.437C431.886 215.75 432.137 217.034 432.429 218.291L432.441 218.365C432.711 220.102 432.867 221.854 432.91 223.612C433.512 225.054 434.457 226.328 435.662 227.323L435.658 227.335ZM544.237 221.028C543.704 222.569 543.13 224.081 542.515 225.564C543.845 224.728 545.125 223.808 546.389 222.864C546.389 222.824 546.389 222.783 546.389 222.743C546.266 220.353 546.06 217.996 545.771 215.673C545.363 217.402 544.853 219.183 544.241 221.017L544.237 221.028ZM474.117 207.58C474.758 207.19 475.405 206.805 476.049 206.418C476.91 204.595 477.403 202.619 477.498 200.605C475.032 201.954 472.266 202.758 469.911 204.295C471.375 205.306 472.781 206.399 474.122 207.569L474.117 207.58ZM462.244 200.059C462.409 200.113 462.573 200.17 462.737 200.229C464.059 199.207 465.5 198.35 467.03 197.679C468.154 197.292 469.301 196.977 470.464 196.734C472.205 196.344 473.906 195.794 475.546 195.091C475.852 194.952 476.153 194.803 476.446 194.646C475.596 192.903 474.415 191.342 472.967 190.052C472.5 189.645 472.037 189.253 471.576 188.875C470.099 189.962 468.59 191.002 467.027 191.948C464.657 193.383 462.542 194.775 460.166 196.21C459.015 196.87 457.918 197.619 456.886 198.453C458.683 198.92 460.472 199.456 462.248 200.049L462.244 200.059ZM430.056 190.559C430.123 191.487 430.208 192.407 430.312 193.317C432.424 193.172 434.552 193.21 436.67 193.128C447.112 192.721 456.587 189.612 465.783 184.76C464.41 183.898 462.939 183.203 461.402 182.688L461.058 182.574C459.995 183.178 458.889 183.703 457.749 184.145C454.84 185.158 451.84 185.885 448.79 186.317C446.175 186.76 443.553 187.21 440.909 187.427C438.265 187.644 435.62 187.635 432.968 187.627C431.909 187.627 430.85 187.619 429.792 187.627C429.833 188.516 429.923 189.49 430.061 190.548L430.056 190.559ZM485.747 117.003C485.704 117.373 485.585 117.73 485.398 118.053V119.107C485.126 119.545 484.935 120.028 484.831 120.533C486.357 119.063 487.85 117.558 489.356 116.063C489.575 112.626 489.588 109.178 489.394 105.74L489.152 105.94L489.052 106.026C488.23 109.759 487.127 113.424 485.751 116.991L485.747 117.003ZM410.44 105.798C411.143 107.664 412.077 108.715 413.24 108.949C413.693 109.127 414.185 109.188 414.668 109.127C415.461 108.886 416.206 108.507 416.868 108.008C417.955 107.362 419.009 106.661 420.024 105.908L422.831 103.803C425.447 101.687 427.607 99.0628 429.18 96.0888L429.137 95.9887C427.91 93.3386 426.419 90.8186 424.688 88.4667L424.678 88.4526C423.107 86.2025 421.278 84.144 419.229 82.3188L419.187 82.2807C417.923 81.0376 416.559 79.9005 415.109 78.8808L415.079 78.8608L415.049 78.8369C414.47 78.3023 413.717 77.9955 412.929 77.9736C412.446 77.9829 411.97 78.0897 411.529 78.2875L411.487 78.3036C410.887 78.4367 410.363 78.7974 410.024 79.31C409.685 79.8226 409.559 80.4468 409.672 81.0507C410.114 82.9442 410.352 84.8795 410.383 86.8237C410.384 88.3944 410.494 89.9635 410.713 91.519C411.2 93.2261 411.322 95.0164 411.072 96.7739L411.06 96.8618L411.032 96.9467C410.38 98.8772 410.042 100.9 410.032 102.938C410.032 103.439 410.025 103.935 410.012 104.426C410.148 104.874 410.292 105.328 410.444 105.786L410.44 105.798ZM426.312 87.2919C427.79 89.3089 429.105 91.4407 430.243 93.6669C430.499 92.9659 430.717 92.2518 430.898 91.5278C431.621 88.6422 431.72 85.6355 431.186 82.7089C429.2 83.7669 427.232 84.8699 425.367 86.0009C425.694 86.4156 426.01 86.8417 426.317 87.2797L426.312 87.2919ZM416.303 77.2748C417.612 78.2009 418.858 79.2132 420.032 80.3056C422.375 78.6336 424.632 77.0685 427.105 75.2255C427.451 74.9662 427.79 74.6976 428.121 74.4189C427.166 72.6948 426.102 71.0327 424.937 69.4428C424.513 68.8348 424.073 68.2432 423.616 67.6679C422.708 68.0209 421.796 68.3675 420.897 68.7455C417.18 70.371 413.734 72.5563 410.679 75.2255L410.179 75.6537C410.204 75.9964 410.213 76.3389 410.208 76.6816C410.388 76.5942 410.577 76.5133 410.775 76.4379C411.456 76.1384 412.191 75.9799 412.935 75.9726C414.177 75.988 415.373 76.4454 416.308 77.2626L416.303 77.2748ZM411.142 58.8637C410.321 59.0752 409.611 59.5907 409.156 60.3056C408.701 61.0205 408.534 61.8816 408.69 62.7148C409.065 64.331 409.295 65.9775 409.376 67.6347C411.737 65.1858 414.418 63.0668 417.346 61.3349C416.66 60.7656 415.918 60.1956 415.12 59.6249C414.359 58.9405 413.378 58.552 412.355 58.5307H412.245C411.868 58.5948 411.499 58.7028 411.147 58.852L411.142 58.8637ZM237.005 300.777C232.772 300.527 229.83 299.647 228.005 298.087C226.18 296.527 224.828 293.841 223.834 289.864L223.822 289.813L223.814 289.763C223.584 288.157 223.351 286.634 223.114 285.231C222.865 283.68 222.743 282.112 222.749 280.542C222.517 276.373 222.4 272.122 222.4 267.904V267.846C222.624 263.816 222.508 259.775 222.055 255.766L220.647 243.797L219.947 231.828V221.308C219.947 217.594 219.83 213.969 219.6 210.53C219.181 205.936 218.736 200.93 218.2 194.779L216.8 179.326V179.28C216.781 178.532 216.673 177.79 216.479 177.068L216.451 176.951V176.828C216.452 175.823 216.573 174.823 216.814 173.848C217.198 170.626 217.365 167.382 217.314 164.138L217.023 160.938C217.006 160.109 216.889 159.285 216.672 158.485C216.672 157.886 216.719 157.289 216.813 156.698C216.813 156.675 216.808 156.652 216.805 156.629C216.132 151.249 215.445 145.641 214.705 139.485C214.236 136.676 213.879 133.708 213.649 130.666V130.627V130.591C213.649 127.54 213.766 124.582 214 121.791C214.001 114.236 213.535 106.688 212.606 99.1909V99.1586C211.885 91.2156 211.178 83.559 210.506 76.395V76.3486V74.1987C210.472 71.9742 210.856 69.7631 211.639 67.6806C211.334 64.3833 211.03 61.1083 210.725 57.8549V55.7548C210.61 52.6476 211.468 49.5819 213.181 46.9868C215.048 44.1868 218.085 42.3175 222.293 41.3788C226.736 40.4455 231.178 39.6274 235.618 38.9247C239.064 38.196 242.562 37.7483 246.08 37.5859C247.28 37.5192 248.48 37.4858 249.68 37.4858C250.903 37.4858 252.134 37.4572 253.371 37.3998C256.942 37.1952 260.496 36.7701 264.014 36.1269C268.923 35.4236 273.831 34.6045 278.738 33.6699C278.938 33.6699 279.144 33.6644 279.355 33.6537L279.455 33.6347H279.692C280.433 33.5759 281.169 33.4717 281.897 33.3227L284.697 32.6176L285.385 32.5888H285.405C285.974 32.5655 286.541 32.5406 287.105 32.5146C291.878 32.2859 296.568 31.973 301.173 31.5756C306.785 31.109 312.277 30.4064 317.65 29.4677H318.15L318.325 29.4379H323.578C326.611 29.9046 328.828 30.7219 330.23 31.8906C331.868 33.2946 332.801 35.5138 333.03 38.5478C333.514 40.5064 333.866 42.4953 334.084 44.5009C334.09 46.4902 333.972 48.4777 333.733 50.4526C333.66 51.6046 333.577 52.7456 333.483 53.8749C333.765 54.8591 333.945 55.8694 334.02 56.8906C334.505 58.8651 334.858 60.8694 335.078 62.8906L335.084 62.9448V63.0019C335.088 65.0222 334.971 67.0408 334.731 69.0468C334.493 72.8028 334.137 76.4697 333.671 79.9467L333.663 79.9965C332.952 83.7905 332.245 87.4486 331.558 90.8676C330.824 94.5446 329.558 97.31 327.786 99.081L327.758 99.1088L327.728 99.1347C325.936 100.67 323.028 101.775 318.846 102.51L318.798 102.518C313.07 103.225 307.303 103.578 301.531 103.576C295.45 103.81 289.431 103.929 283.646 103.929C281.712 103.936 279.779 104.049 277.857 104.268C275.785 104.728 273.738 105.295 271.725 105.968C270.126 106.543 268.705 107.527 267.604 108.821C266.945 109.606 266.533 110.569 266.421 111.589C266.701 113.898 267.19 116.177 267.884 118.397C268.395 120.421 269.491 122.248 271.036 123.652C271.664 124.202 272.405 124.607 273.208 124.838C274.01 125.069 274.853 125.12 275.677 124.988C275.874 124.943 276.074 124.89 276.277 124.83C276.468 124.798 276.66 124.768 276.851 124.741L276.994 124.699C278.382 124.467 279.787 124.35 281.194 124.35C282.487 124.339 283.779 124.456 285.049 124.699C288.86 126.078 292.91 126.674 296.956 126.452C300.95 126.217 304.927 125.75 308.867 125.052H310.667C311.136 124.888 311.596 124.697 312.043 124.48C312.224 124.457 312.405 124.437 312.585 124.42L312.724 124.353C316.252 123.841 319.847 124.584 322.882 126.453C325.682 128.319 327.433 131.238 328.135 135.208C329.279 140.629 329.982 146.133 330.235 151.668C330.358 154.594 330.385 157.487 330.316 160.347C330.79 163.662 331.097 166.934 331.234 170.128C331.472 175.663 331.354 181.208 330.881 186.728C330.731 189.228 329.801 191.618 328.221 193.561C326.79 195.446 324.77 196.798 322.482 197.402C321.066 197.874 319.616 198.236 318.144 198.486C316.7 198.726 315.24 198.847 313.776 198.849C311.276 198.849 308.593 198.964 305.803 199.194H305.761H297.413C296.343 199.415 295.254 199.533 294.161 199.545H294.061L293.961 199.525C293.208 199.331 292.419 199.321 291.661 199.495L291.587 199.521L291.508 199.531C287.333 200.194 284.591 201.26 283.355 202.7C282.404 203.809 281.955 205.714 282.025 208.38C282.186 210.974 282.494 213.556 282.946 216.116C283.229 218.07 284.082 219.898 285.398 221.371C286.331 222.304 288.082 222.771 290.651 222.771C293.218 223.005 295.904 223.122 298.707 223.122L307.107 222.422C309.444 222.188 312.013 222.071 314.813 222.073H322.518C324.924 222.243 327.233 223.092 329.175 224.523C330.971 226.206 332.194 228.409 332.675 230.823C332.911 231.523 333.144 232.342 333.375 233.275C333.592 234.075 333.711 234.898 333.729 235.727C333.729 240.398 333.962 245.067 334.429 249.735V251.883C334.616 252.652 334.716 253.439 334.729 254.23C334.729 258.871 334.963 263.549 335.429 268.14V268.19V271.045C335.421 274.897 334.942 278.734 334.002 282.47C333.778 283.668 333.67 284.884 333.678 286.103V286.186L333.664 286.267C333.441 287.602 333.328 288.953 333.328 290.307C333.362 291.276 333.198 292.243 332.846 293.147C332.495 294.052 331.963 294.875 331.283 295.568C330.079 296.705 328.605 297.516 327.001 297.926L326.934 297.944L326.863 297.954C325.324 298.172 323.8 298.406 322.335 298.654L322.252 298.668H322.169C320.575 298.669 318.984 298.782 317.406 299.008L317.335 299.018H297.606C292.544 298.788 287.384 298.669 282.264 298.669C277.164 298.901 272.005 299.253 266.92 299.715C261.835 300.177 256.738 300.535 251.82 300.769H251.796L237.005 300.777ZM251.751 298.777C256.637 298.546 261.681 298.191 266.751 297.729C267.412 297.67 268.075 297.611 268.738 297.555C270.557 296.831 272.35 296.043 274.116 295.19C280.566 292.068 286.416 288.296 293.297 286.29C297.511 285.059 301.048 282.39 304.645 279.811H297.385C293.28 280.99 288.923 281.497 285.179 283.545C283.511 284.456 282.009 285.661 280.315 286.515C275.799 288.786 270.202 288.522 266.037 291.387C262.979 293.687 259.562 295.468 255.924 296.658C253.345 297.385 250.718 297.971 248.17 298.78L251.751 298.777ZM229.31 296.569C229.547 296.77 229.8 296.951 230.067 297.11C231.02 296.496 231.978 295.891 232.943 295.296C235.19 293.771 237.644 292.574 240.229 291.744C243.529 290.855 247.029 291.133 250.391 290.519C257.166 289.249 262.846 284.434 269.591 283.027C271.791 282.568 274.068 282.493 276.257 281.98C278.795 281.396 281.172 280.255 283.657 279.465C282.954 279.461 282.25 279.459 281.547 279.459C276.403 279.695 271.26 280.046 266.118 280.513C262.247 280.863 258.441 281.149 254.701 281.369C253.367 281.891 252.029 282.408 250.654 282.812C245.036 284.454 238.888 284.194 233.527 286.552C230.944 287.81 228.516 289.364 226.293 291.184C226.804 293.212 227.847 295.067 229.315 296.557L229.31 296.569ZM297.682 297.027H313.199C317.72 296.19 322.199 294.873 326.716 295.542C327.057 295.585 327.401 295.591 327.743 295.56C328.535 295.234 329.257 294.762 329.873 294.168C330.368 293.661 330.752 293.058 331.003 292.396C331.254 291.735 331.366 291.028 331.332 290.321C331.332 290.158 331.332 289.995 331.332 289.832C323.413 291.725 317.017 292.774 309.043 294.051C307.785 294.288 306.509 294.424 305.229 294.458C305.05 294.458 304.862 294.458 304.683 294.446C304.643 294.443 304.604 294.428 304.573 294.402C304.542 294.376 304.52 294.34 304.51 294.301C304.501 294.261 304.504 294.219 304.52 294.182C304.536 294.145 304.563 294.113 304.598 294.093C308.491 291.91 312.675 290.29 317.023 289.283C321.907 288.311 326.703 286.936 331.36 285.172V285.043L331.708 284.908C331.753 283.955 331.866 283.007 332.047 282.071L332.059 282.023C332.311 281.014 332.529 280.003 332.712 278.989C332.373 279.111 332.031 279.224 331.688 279.329V279.429C324.982 281.357 318.774 283.086 312.072 285.016C310.82 285.318 309.613 285.784 308.483 286.403C307.357 287.08 306.434 288.049 305.336 288.762C302.497 290.602 298.874 290.541 295.557 291.248C293.981 291.611 292.43 292.079 290.916 292.648C287.708 293.827 284.568 295.185 281.511 296.716L282.197 296.684H282.243C287.398 296.664 292.598 296.783 297.686 297.015L297.682 297.027ZM224.753 280.458V280.514C224.747 281.68 224.814 282.846 224.953 284.004C225.222 283.886 225.487 283.762 225.753 283.629C227.396 282.686 228.99 281.659 230.528 280.552C229.568 280.237 228.674 279.749 227.891 279.11C227.771 279.007 227.653 278.898 227.537 278.783C226.707 279.189 225.883 279.605 225.053 279.998L224.732 280.151L224.753 280.458ZM224.537 275.641C224.793 275.516 225.048 275.391 225.303 275.265C224.98 274.504 224.699 273.725 224.461 272.934C224.486 273.829 224.512 274.728 224.541 275.629L224.537 275.641ZM333.037 263.762C332.795 265.031 332.677 266.322 332.686 267.615C332.649 267.84 332.615 268.065 332.586 268.29C332.863 268.183 333.137 268.067 333.408 267.945C333.271 266.531 333.155 265.111 333.06 263.685L333.037 263.762ZM222.652 243.648L222.744 244.426C222.706 242.226 222.566 239.992 222.323 237.726L222.306 237.744L222.652 243.648ZM281.198 192.31L281.493 197.297C282.903 196.454 284.406 195.777 285.972 195.28C288.145 194.542 290.371 193.971 292.63 193.572C295.519 193.26 298.424 193.113 301.33 193.131C310.99 192.647 320.426 190.05 328.973 185.523C329.106 183.803 329.206 182.064 329.273 180.306C327.155 181.864 324.853 183.155 322.418 184.148C319.51 185.161 316.51 185.888 313.461 186.32C310.844 186.763 308.226 187.213 305.58 187.43C302.934 187.647 300.289 187.638 297.643 187.63C294.159 187.531 290.673 187.691 287.213 188.108C285.129 188.442 283.064 188.888 281.027 189.444C281.033 190.397 281.09 191.35 281.198 192.297V192.31ZM218.457 176.722L218.463 176.745L218.458 176.687C218.458 176.685 218.458 176.697 218.458 176.708L218.457 176.722ZM215.657 130.568C215.885 133.546 216.233 136.449 216.693 139.194L216.699 139.24C216.86 140.58 217.018 141.896 217.174 143.187L217.455 143.087C217.369 141.446 217.228 139.804 217.031 138.163C216.94 137.433 216.848 136.699 216.757 135.963L216.733 135.971C216.709 135.832 216.7 135.692 216.706 135.552C216.403 133.12 216.101 130.667 215.8 128.192L215.679 128.292C215.663 129.036 215.655 129.79 215.655 130.555L215.657 130.568ZM266.145 106.847C266.145 107.053 266.145 107.258 266.145 107.464C267.464 105.942 269.151 104.784 271.045 104.101L271.081 104.089C273.182 103.386 275.318 102.793 277.481 102.312L277.533 102.3L277.585 102.294C279.251 102.108 280.87 101.994 282.413 101.956C283.596 101.111 284.794 100.287 286.03 99.5175C289.079 97.6175 292.341 96.0697 295.367 94.1337C298.796 91.8205 302.054 89.2637 305.116 86.4828C306.076 85.6535 307.036 84.8224 307.997 83.9897C305.625 84.109 303.233 84.1692 300.822 84.1699C298.109 84.2745 295.42 84.3555 292.754 84.4135C291.436 85.1605 290.146 85.9237 288.912 86.6987C286.641 88.0322 284.494 89.5677 282.498 91.2866C281.098 92.5636 279.858 94.0126 278.436 95.2646C274.886 98.3876 270.401 100.124 265.819 101.425L266.145 106.847ZM308.589 93.0927C304.469 96.1038 300.163 98.8519 295.697 101.321L294.88 101.797C297.065 101.742 299.265 101.672 301.48 101.588H301.518C307.206 101.592 312.89 101.246 318.535 100.55C322.267 99.8907 324.915 98.9158 326.408 97.6498C328.052 95.7323 329.13 93.3946 329.521 90.8989C327.432 91.8669 325.245 92.6198 323.221 93.7328C322.527 94.1735 321.797 94.555 321.039 94.873C320.47 95.0439 319.891 95.1831 319.306 95.29C317.596 95.7058 316.044 96.6086 314.837 97.8896C314.577 98.2372 314.197 98.4767 313.771 98.561C313.672 98.561 313.575 98.5387 313.485 98.4965C313.805 96.4515 315.48 94.9507 316.56 93.1967C317.503 91.6757 318.015 89.8966 319.16 88.5156C319.714 87.9088 320.31 87.3428 320.945 86.8217C321.686 86.161 322.394 85.4636 323.065 84.7319C323.637 84.1039 324.183 83.4488 324.721 82.7978C326.536 80.6128 328.949 79.3039 331.377 77.4619V77.2099C331.612 77.0299 331.845 76.8426 332.077 76.6479C332.333 74.3589 332.543 72.0028 332.704 69.6078C332.381 69.7894 332.047 69.951 331.704 70.0917V70.2167C331.457 70.3037 331.196 70.3989 330.926 70.5019C330.815 71.0632 330.703 71.6211 330.592 72.1757C329.893 75.6757 328.726 78.2441 327.092 79.8808C325.46 81.2808 322.66 82.331 318.692 83.0317L318.067 83.1088L318.021 83.1166C317.458 83.1833 316.894 83.2502 316.329 83.3168C314.059 86.8858 311.833 90.5886 308.587 93.0786L308.589 93.0927ZM271.398 86.5317C269.629 87.1653 268.059 88.2537 266.844 89.687C266.079 90.5968 265.593 91.7076 265.444 92.8867C266.733 92.402 267.995 91.8464 269.223 91.2226C271.79 89.8053 274.234 88.1781 276.532 86.3569L278.75 84.6977C278.379 84.7277 278.004 84.7611 277.625 84.7978C275.521 85.2637 273.443 85.8384 271.398 86.519V86.5317ZM328.698 85.4008C328.541 85.6128 328.378 85.9089 328.541 86.1249C328.605 86.1901 328.684 86.2392 328.771 86.2685C328.858 86.2978 328.95 86.3066 329.041 86.2939C329.532 86.2673 330.018 86.1813 330.489 86.0385C330.724 84.8325 330.96 83.6062 331.197 82.3588C330.322 83.3288 329.482 84.3376 328.698 85.3876V85.4008ZM332.692 61.3178L332.638 61.6069L332.9 61.5375C332.86 61.2595 332.818 60.9836 332.773 60.7089C332.742 60.9036 332.714 61.1029 332.687 61.3076L332.692 61.3178ZM22.3682 287.818C20.0452 287.818 17.5401 287.699 14.9221 287.464L14.8459 287.458L14.769 287.438L12.085 286.765C10.9837 286.768 9.88596 286.64 8.81494 286.384L8.76099 286.37C4.76899 285.122 2.09105 283.061 0.800049 280.245C0.286685 279.243 0.0127815 278.136 0 277.011C0.0669959 274.744 0.711388 272.531 1.87207 270.583L4.47217 265.619C2.82821 264.693 1.5107 263.282 0.700928 261.578C0.252198 260.712 0.0125139 259.753 0.000976562 258.778C0.0675393 256.673 0.671153 254.621 1.75415 252.816L9.46704 238.09C11.9963 233.255 14.8062 228.572 17.8821 224.065C20.2059 220.818 22.3141 217.422 24.1931 213.899C26.3394 210.529 27.9921 206.868 29.1011 203.03L30.501 200.223C30.949 199.316 31.5402 198.489 32.252 197.771C35.2301 194.581 37.8202 191.05 39.968 187.252L46.2791 176.032C50.7177 169.018 55.042 161.888 59.252 154.643C63.2253 147.631 67.3156 140.501 71.5229 133.255C73.8603 129.281 76.0811 125.308 78.1851 121.333C80.0611 118.144 81.861 114.954 83.585 111.762C80.11 111.545 76.697 111.269 73.397 110.938L73.355 110.932C70.9654 110.591 68.5549 110.42 66.1411 110.418C63.7301 110.42 61.3221 110.591 58.9351 110.93C57.7932 111.123 56.6372 111.221 55.479 111.224C53.7858 111.224 52.1002 111 50.4661 110.557C47.9471 109.872 45.271 109.289 42.509 108.826C40.8741 108.56 39.4019 107.681 38.3921 106.368L38.3501 106.316L38.3162 106.257C37.5446 104.964 37.0243 103.537 36.783 102.052L36.7771 101.997L36.0771 95.748C35.6232 93.7503 35.3855 91.7091 35.3682 89.6606C35.1362 86.1946 35.0191 82.7817 35.0171 79.5097C34.7831 76.2247 34.6641 73.0296 34.6641 70.0146C34.6566 68.4342 34.7793 66.8561 35.031 65.2958V65.2675C35.052 65.1625 35.0751 65.0576 35.1011 64.9516C35.0651 63.6263 35.0471 62.3191 35.0471 61.0297C34.8138 57.7597 34.6973 54.6046 34.698 51.5639C34.6891 50.0369 34.806 48.5117 35.0471 47.0038C35.3422 45.7134 35.9434 44.513 36.8 43.5038C37.4864 42.3547 38.3113 41.2939 39.2561 40.3456C40.3384 39.4434 41.7021 38.9482 43.1111 38.9457C43.2231 38.9457 43.3347 38.943 43.446 38.937C43.5454 38.927 43.6454 38.9188 43.7461 38.9135C44.2451 38.8626 44.7369 38.756 45.2122 38.5956H46.0452L46.165 38.5566H47.627C52.637 38.2672 57.6014 38.0227 62.52 37.8227C65.492 37.6994 68.447 37.5932 71.385 37.5038C72.8517 37.4612 74.3143 37.4107 75.7729 37.352C81.9023 37.0907 87.961 36.688 93.949 36.144C96.775 35.9333 99.6007 35.7701 102.426 35.6547C106.206 35.4861 109.986 35.4021 113.765 35.4028C114.49 35.3761 115.216 35.3481 115.943 35.3188C121.268 35.0901 126.675 34.7809 132.166 34.3915L132.682 34.3788L133.03 34.3539C139.045 34.1999 145.008 33.9947 150.918 33.7387C153.677 33.6167 156.426 33.4835 159.163 33.3388C168.045 32.8721 177.045 32.4056 186.163 31.9389H186.309L186.973 31.9047H192.226C194.092 32.0596 195.894 32.6608 197.479 33.6577C198.495 33.9901 199.428 34.5375 200.214 35.2621C201 35.9868 201.621 36.872 202.035 37.8578C202.472 38.4729 202.715 39.204 202.735 39.9579C202.687 41.3068 202.328 42.6262 201.685 43.8129C200.518 45.6796 199.466 47.5459 198.529 49.4125C198.25 49.9705 197.96 50.5289 197.66 51.0869C197.757 51.1455 197.852 51.2052 197.946 51.2665C199.053 51.6494 200.068 52.2595 200.926 53.0571C201.784 53.8547 202.466 54.8226 202.929 55.8989C203.436 56.657 203.714 57.5457 203.729 58.4579C203.681 59.9612 203.286 61.4328 202.574 62.7578L202.552 62.7997L202.528 62.8398C201.372 64.6918 200.328 66.5478 199.419 68.3608C198.472 70.2558 197.398 72.1606 196.229 74.0346C192.247 80.8256 188 87.7837 183.607 94.7167C179.44 101.429 175.323 108.369 171.374 115.341L171.346 115.385C167.679 121.116 164.038 126.994 160.517 132.853C157.287 138.853 153.751 144.869 150.011 150.718C149.029 152.66 147.816 154.477 146.398 156.128C145.071 157.664 143.941 159.36 143.033 161.176L142.977 161.289L142.896 161.382C141.47 163.064 140.217 164.886 139.156 166.82L139.13 166.864C137.995 168.678 136.956 170.528 136.037 172.364C133.674 177.784 130.837 182.985 127.558 187.906C124.29 192.806 120.872 197.64 117.4 202.273L115.323 205.729C114.639 206.884 114.082 208.11 113.663 209.386L113.641 209.454L113.609 209.517L112.228 212.28H113.414C120.187 212.516 127.077 212.633 134.084 212.631C140.851 212.865 147.739 212.981 154.748 212.98C160.118 213.216 165.488 213.567 170.858 214.034L186.97 214.734C190.703 214.968 193.503 216.018 195.37 217.885C197.472 219.751 198.757 222.551 199.225 226.285C199.457 230.723 199.69 235.278 199.925 239.949C199.982 241.082 200.012 242.215 200.013 243.349C200.093 243.776 200.162 244.216 200.219 244.667V244.704V244.74C200.493 250.015 200.719 254.358 200.919 258.404C201.153 263.151 200.916 267.91 200.21 272.61L200.202 272.658L200.19 272.704C199.535 275.92 198.142 278.94 196.12 281.526C195.1 282.645 193.836 283.514 192.426 284.067C190.713 284.742 188.916 285.18 187.084 285.367C185.205 285.6 183.314 285.719 181.42 285.724C179.539 285.957 177.645 286.075 175.75 286.075H79.759C74.659 285.958 69.507 285.9 64.459 285.9C59.411 285.9 54.3239 285.958 49.3359 286.075H49.312C46.3 286.075 43.382 286.19 40.637 286.419H40.595H40.553C37.6758 286.431 34.8036 286.661 31.9609 287.106C29.1303 287.581 26.2652 287.82 23.395 287.823L22.3682 287.818ZM12.21 284.765H12.335L12.4541 284.795L15.178 285.478C17.709 285.704 20.1269 285.816 22.3669 285.816H23.7C28.955 283.833 33.229 279.736 38.095 276.826C43.558 273.555 49.766 271.78 55.895 270.049C57.64 269.56 58.72 269.249 60.376 268.788V268.693C61.9341 268.223 63.4194 267.538 64.7891 266.659C59.2864 266.649 53.8198 266.707 48.3892 266.833C45.3525 266.833 42.4313 266.95 39.626 267.184C36.6901 267.193 33.7593 267.427 30.8591 267.884C29.4058 268.127 27.9508 268.307 26.4941 268.423C24.6461 268.741 22.8275 269.213 21.0571 269.831C17.1091 271.258 13.545 273.758 9.42603 274.526C6.88971 275.117 4.40747 275.92 2.00513 276.926C2.00513 276.954 2.00513 276.983 2.00513 277.011C2.01917 277.832 2.22446 278.639 2.60498 279.368L2.61914 279.398C3.10558 280.445 3.8235 281.368 4.71899 282.098C4.89966 282.06 5.08001 282.021 5.26001 281.98C8.29901 281.28 11.108 279.786 14.134 279.048C18.148 278.069 22.4222 278.448 26.3792 277.255C32.1062 275.532 36.6981 270.655 42.6401 269.969C43.2891 269.894 44.4651 269.763 44.8501 270.289C39.2501 271.581 35.079 276.223 29.834 278.581C24.834 280.826 19.005 280.91 14.189 283.544C13.503 283.917 12.845 284.344 12.189 284.769L12.21 284.765ZM73.491 270.956C70.0004 274.779 65.6006 277.658 60.7 279.327V279.427C54.962 281.079 49.5761 282.585 43.9351 284.196C45.6871 284.111 47.489 284.068 49.325 284.068C54.044 283.96 58.851 283.9 63.625 283.893C70.315 281.749 77.604 280.609 83.981 277.882C86.808 276.673 89.5951 275.335 92.3171 273.898C94.9407 272.319 97.7511 271.074 100.683 270.192C104.493 269.269 108.664 269.733 112.183 268.02C112.87 267.673 113.531 267.278 114.162 266.837H88.262C87.884 267.051 87.5138 267.282 87.1511 267.53C85.1221 268.918 83.405 270.855 81.072 271.63C80.866 270.455 81.797 269.413 82.678 268.611C83.3446 268.001 84.0265 267.409 84.7231 266.834H78.8901L77.0901 266.795C75.8691 268.157 74.7521 269.619 73.4861 270.946L73.491 270.956ZM162.684 284.064C166.384 281.93 169.734 279.035 173.426 276.826C178.893 273.555 185.107 271.78 191.237 270.049C193.085 269.529 194.191 269.217 196.037 268.693C196.992 268.417 197.917 268.048 198.8 267.593C199.012 265.003 199.079 262.403 199 259.806C198.827 259.891 198.652 259.975 198.475 260.055C197.843 260.342 197.196 260.593 196.536 260.808C196.196 261.354 195.814 261.872 195.392 262.358C194.141 263.683 192.544 264.631 190.782 265.097C189.295 265.623 187.751 265.972 186.182 266.136C184.322 266.37 182.449 266.487 180.574 266.487C178.712 266.719 176.838 266.836 174.962 266.836H171.14C169.326 267.169 167.489 267.487 165.63 267.789C162.492 268.181 159.397 268.867 156.387 269.836C152.454 271.263 148.887 273.763 144.76 274.531C140.603 275.301 137.109 277.431 132.944 278.176C130.151 278.676 127.298 278.795 124.544 279.476C121.272 280.284 118.244 281.862 114.999 282.815C112.938 283.378 110.84 283.797 108.721 284.07H130.421C131.567 283.635 132.744 283.287 133.942 283.03C136.142 282.571 138.415 282.496 140.604 281.983C143.636 281.283 146.443 279.789 149.476 279.051C153.49 278.072 157.76 278.451 161.717 277.258C167.438 275.535 172.042 270.658 177.976 269.972C178.623 269.897 179.802 269.766 180.191 270.292C174.591 271.584 170.412 276.226 165.175 278.584C160.166 280.829 154.342 280.913 149.526 283.547C149.226 283.713 148.926 283.889 148.626 284.071L162.684 284.064ZM89.1541 284.064C89.4731 283.929 89.7872 283.784 90.0972 283.627C92.5472 282.388 94.5972 280.433 97.0972 279.327C100.438 277.836 104.138 278.005 107.851 278.164C110.931 278.463 114.039 278.271 117.059 277.596C118.947 277.06 120.704 276.141 122.544 275.46C125.162 272.767 128.06 270.361 131.187 268.281C131.987 267.781 132.805 267.314 133.619 266.838H119.819C118.781 267.474 117.786 268.185 116.757 268.838C114.406 270.263 111.964 271.534 109.449 272.644C107.183 273.785 104.823 274.731 102.396 275.471C100.419 276.011 98.376 276.285 96.426 276.884C94.015 277.756 91.6686 278.798 89.4041 280.001C87.7311 280.801 86.0751 281.639 84.4211 282.476C83.2741 283.057 82.103 283.585 80.915 284.07L89.1541 284.064ZM180.676 283.793C180.872 283.771 181.067 283.748 181.262 283.724L181.323 283.716H181.386C183.218 283.714 185.049 283.599 186.867 283.373H186.873C190.573 282.936 193.184 281.873 194.643 280.204C194.78 280.046 194.914 279.882 195.043 279.71C190.14 281.108 185.481 282.408 180.67 283.783L180.676 283.793ZM134.645 273.585C134.766 273.571 134.883 273.563 134.996 273.548C138.948 273.107 142.766 271.853 146.21 269.865C148.05 268.853 149.891 267.843 151.734 266.834H141.424C138.966 268.874 136.696 271.13 134.639 273.574L134.645 273.585ZM3.6311 271.543C3.36457 272.019 3.12279 272.509 2.90698 273.01C5.69493 272.338 8.37515 271.279 10.8691 269.864C11.8771 269.31 12.8857 268.756 13.895 268.204L11.2241 267.537C10.1617 267.548 9.10176 267.43 8.06812 267.184C7.47878 267 6.92102 266.8 6.39502 266.584L6.104 266.822L3.6311 271.543ZM103.631 209.12C103.932 209.987 104.479 210.748 105.206 211.309C105.367 211.179 105.526 211.039 105.682 210.887C107.257 209.259 109.176 208.003 111.298 207.212C111.704 207.077 112.115 206.951 112.526 206.828C112.847 206.093 113.215 205.379 113.626 204.691L115.756 201.147L115.786 201.107L116.125 200.654C114.242 201.538 112.352 202.404 110.398 203.115C108.231 203.905 106.006 204.504 103.798 205.164C103.486 205.769 103.309 206.436 103.279 207.117C103.249 207.797 103.367 208.477 103.624 209.108L103.631 209.12ZM116.589 183.201L114.489 186.701C113.936 187.625 113.464 188.595 113.078 189.601C113.459 189.458 113.846 189.328 114.237 189.209C116.404 188.63 118.621 188.255 120.858 188.088C122.389 187.93 123.899 187.725 125.409 187.538C125.578 187.285 125.747 187.032 125.916 186.78C127.583 184.28 129.136 181.698 130.566 179.056C128.117 179.578 125.667 180.1 123.216 180.622C121.335 181.022 119.433 181.431 117.55 181.906C117.226 182.334 116.904 182.763 116.583 183.191L116.589 183.201ZM122.833 174.575C126.911 173.505 130.904 172.132 134.777 170.467C135.589 168.913 136.483 167.355 137.442 165.822C137.615 165.51 137.791 165.204 137.97 164.902C134.466 166.615 130.819 168.016 127.07 169.09L126.47 169.25C125.27 171.034 124.056 172.805 122.827 174.564L122.833 174.575ZM130.41 162.902C133.152 161.922 135.839 160.795 138.46 159.527C140.035 158.765 141.575 157.963 143.103 157.158C143.66 156.347 144.261 155.567 144.903 154.822C146.225 153.282 147.355 151.586 148.266 149.773L148.29 149.725L148.318 149.681C148.69 149.099 149.06 148.516 149.428 147.932C147.797 148.842 146.321 150.011 144.659 150.845C141.687 152.345 138.246 152.745 135.054 153.657C133.666 156.814 132.114 159.896 130.404 162.891L130.41 162.902ZM142.159 142.223C140.986 143.599 139.93 145.071 139.002 146.623C139.538 146.539 140.071 146.44 140.602 146.318C143.634 145.618 146.441 144.126 149.474 143.388C150.487 143.148 151.514 142.972 152.549 142.859C154.367 139.827 156.117 136.778 157.798 133.712C157.324 133.853 156.854 134.008 156.388 134.177C152.455 135.604 148.888 138.104 144.761 138.868C144.532 138.91 144.304 138.957 144.079 139.008C143.358 140.025 142.714 141.095 142.153 142.208L142.159 142.223ZM149.159 131.717C148.951 132.132 148.731 132.542 148.5 132.947C150.491 131.853 152.482 130.759 154.472 129.666C156.014 128.772 157.614 127.983 159.262 127.306C160.188 126.953 161.135 126.658 162.097 126.421C163.231 124.568 164.373 122.719 165.526 120.876C161.704 121.976 157.692 122.676 153.935 123.976C152.384 126.571 150.791 129.149 149.154 131.708L149.159 131.717ZM84.635 109.817L84.8501 109.412C85.9849 107.83 87.0389 106.191 88.0081 104.503C89.1747 102.631 90.227 100.876 91.165 99.2397C91.4533 98.7682 91.6448 98.2441 91.728 97.6977C91.8113 97.1513 91.7849 96.5936 91.6501 96.0576C90.7801 97.1666 89.929 98.2927 89.033 99.3847C88.549 99.9847 88.0399 100.568 87.5239 101.14C85.9656 102.856 84.2877 104.46 82.5029 105.94C81.9101 106.394 81.3556 106.895 80.845 107.44C80.2583 108.101 79.6789 108.767 79.1069 109.44C80.9243 109.573 82.7655 109.696 84.6301 109.808L84.635 109.817ZM170.524 96.3378C167.657 100.814 164.862 105.29 162.138 109.766C165.738 108.466 169.827 108.227 173.678 107.357C175.619 104.035 177.586 100.742 179.578 97.478C179.439 97.6113 179.304 97.7445 179.173 97.8779C178.913 98.2255 178.533 98.4644 178.107 98.5488C178.008 98.5492 177.91 98.5274 177.821 98.4848C178.142 96.4398 179.821 94.9385 180.9 93.1845C181.835 91.6635 182.351 89.8848 183.5 88.5038C184.053 87.8972 184.649 87.3307 185.283 86.8095C186.024 86.1492 186.731 85.4518 187.401 84.7197C187.508 84.603 187.613 84.4853 187.718 84.3666C190.058 80.5476 192.337 76.747 194.536 72.998L194.552 72.9736C195.138 72.0349 195.698 71.0896 196.232 70.1376C196.17 70.1606 196.108 70.184 196.045 70.206C194.302 70.8328 192.597 71.5591 190.937 72.3818C189.425 73.1259 188.026 74.0804 186.782 75.2167C186.436 75.5367 186.093 75.8758 185.766 76.2368C184.926 77.1678 184.176 78.1805 183.425 79.1845C180.009 83.7665 177.467 89.6049 172.931 93.0849C172.613 93.3282 172.293 93.5676 171.97 93.8036C171.481 94.641 170.998 95.4822 170.519 96.3276L170.524 96.3378ZM55.489 109.218C56.5409 109.216 57.5907 109.127 58.6279 108.952H58.6521C61.1363 108.596 63.6426 108.418 66.1521 108.416C68.2722 108.417 70.3903 108.545 72.4951 108.799C74.3761 107.441 76.2101 106.038 77.9951 104.525C78.8051 103.844 79.6112 103.147 80.3792 102.413C81.673 101.216 82.7922 99.8432 83.7041 98.3349C83.8871 98.0169 84.061 97.6878 84.228 97.3598C84.395 97.0318 84.5441 96.7007 84.7021 96.3657C84.7811 96.2007 84.857 96.0277 84.936 95.8657C85.176 95.3657 85.4141 94.8658 85.6821 94.3828C86.027 93.7602 86.4094 93.1592 86.8271 92.5829C83.2938 92.4129 79.8197 92.1822 76.405 91.8915C75.8977 92.1875 75.4115 92.5185 74.95 92.8818C74.095 93.6096 73.295 94.3992 72.5562 95.2446C70.1802 97.8316 67.7401 100.351 65.2961 102.874C63.8531 104.357 62.5861 105.796 60.7021 106.556V106.681C58.3231 107.504 56.0782 108.401 53.7122 109.137C54.3012 109.19 54.8926 109.214 55.4841 109.208L55.489 109.218ZM38.0549 95.3608L38.0671 95.416L38.073 95.4697L38.7729 101.743C38.9701 102.949 39.3883 104.109 40.0061 105.164C40.4237 105.688 40.9465 106.118 41.541 106.428C41.879 106.302 42.2123 106.166 42.541 106.02C44.427 105.18 46.1322 103.997 47.9312 102.993C51.7762 100.839 56.267 100.575 60.376 98.9926V98.8657C62.461 98.0257 63.5901 96.1157 65.4441 94.8437C66.5281 94.0977 67.7441 93.5666 68.8091 92.8066C69.4356 92.3396 70.0281 91.8289 70.582 91.2778C67.2172 90.9253 63.8258 90.9052 60.457 91.2177C59.9024 91.279 59.3473 91.349 58.792 91.4277C58.186 91.529 57.5859 91.6032 56.9919 91.6498L56.7122 91.6826C55.1804 92.2826 53.6819 92.9642 52.2231 93.7245C51.5289 94.1661 50.7982 94.5476 50.0391 94.8647C49.4671 95.0366 48.8859 95.1758 48.2981 95.2817C46.5893 95.699 45.0379 96.6021 43.8311 97.8818C43.5727 98.2314 43.1922 98.4709 42.7651 98.5527C42.6682 98.5527 42.5724 98.5309 42.4851 98.4887C42.7971 96.4437 44.485 94.9429 45.562 93.1889C46.093 92.3219 46.491 91.3709 46.947 90.4589C45.2544 90.0663 43.5147 89.7202 41.728 89.4208C41.5767 89.3955 41.4283 89.3646 41.283 89.3286C40.2273 90.7165 39.0017 91.9667 37.635 93.0497C37.737 93.8004 37.8754 94.5669 38.05 95.3495L38.0549 95.3608ZM188.444 66.5927C191.199 65.3247 192.989 63.2505 196.044 62.0165C197.167 61.6282 198.314 61.3127 199.477 61.0717C200.103 60.9127 200.731 60.7507 201.355 60.5717C201.605 59.8909 201.741 59.173 201.755 58.4477C201.736 57.8899 201.551 57.3506 201.223 56.8989L201.161 56.8036L201.121 56.7036C200.74 55.7051 200.076 54.8398 199.21 54.2138C198.177 54.9408 197.126 55.6375 196.048 56.2885C195.295 56.7445 194.567 57.1959 193.848 57.6459C192.085 60.5979 190.282 63.5766 188.439 66.582L188.444 66.5927ZM594.336 287.468C587.316 287.468 580.094 287.112 572.87 286.41H572.838H572.806C571.157 286.112 569.591 285.464 568.214 284.51L568.178 284.486L568.144 284.46C566.847 283.438 565.881 282.056 565.367 280.488C564.923 279.188 564.562 277.861 564.285 276.516L563.567 272.937V272.858C563.325 267.091 563.088 261.034 562.867 255.346C562.633 249.525 562.281 243.653 561.819 237.898C561.351 234.359 561.233 230.783 561.466 227.221C561.696 223.566 561.812 219.251 561.812 214.397C561.328 210.414 561.212 206.395 561.464 202.392C561.447 197.643 560.985 192.907 560.084 188.246L560.066 188.153V185.904V185.854C560.759 179.05 560.875 172.2 560.415 165.377C559.715 158.605 559.242 151.755 559.009 145.013C558.777 140.147 558.658 135.183 558.658 130.263V116.297L557.263 100.232L555.857 84.0707V81.8705L555.865 81.8095C556.551 76.1897 556.551 70.5074 555.865 64.8876V64.8798C555.392 60.5396 555.156 56.1769 555.16 51.811V47.9536C555.151 46.3796 555.272 44.808 555.521 43.2538L555.929 40.3886C555.796 38.0719 555.729 35.7231 555.729 33.3417V29.4858C555.721 27.9593 555.839 26.4347 556.082 24.9277L556.782 20.0146C557.015 18.384 557.613 16.8275 558.533 15.4609C559.663 14.0872 561.106 13.0048 562.742 12.3056C564.142 11.8356 565.428 11.3667 566.597 10.9057C567.86 10.475 569.149 10.1232 570.456 9.85199C576.325 8.2558 582.3 7.08376 588.337 6.34564C592.379 5.92031 596.516 5.68727 600.749 5.64594C601.296 5.63927 601.845 5.63568 602.396 5.63568H606.95C613.95 5.86968 620.839 6.33625 627.616 7.03558L647.931 9.13568C652.599 9.60255 657.188 10.6613 661.589 12.2866C665.997 13.815 670.323 15.5694 674.55 17.5419C684.776 22.7124 694.21 29.3162 702.569 37.1537C710.624 45.0179 717.364 54.1243 722.532 64.1249C724.808 68.1732 726.46 72.5417 727.432 77.0829C728.365 81.5203 729.065 85.8402 729.532 90.0429C729.709 93.6677 729.686 97.2995 729.463 100.922C729.896 103.465 730.252 105.978 730.526 108.436L730.532 108.499C730.768 113.328 730.651 118.167 730.181 122.979C729.938 127.964 728.976 132.887 727.326 137.598V137.604C725.09 143.956 722.115 150.022 718.462 155.679L718.446 155.703C714.586 161.22 709.594 165.85 703.803 169.286C700.996 171.156 698.028 172.935 694.983 174.575L689.609 177.467C693.322 183.234 697.173 189.001 701.164 194.767C707.237 203.641 713.659 212.397 720.428 221.035L726.034 228.041C727.668 230.378 729.42 232.713 731.289 235.047C732.089 236.151 732.792 237.322 733.389 238.547C734.065 239.665 734.65 240.835 735.138 242.047C735.987 243.797 736.464 245.704 736.538 247.647C736.507 248.732 736.269 249.802 735.838 250.799C735.428 251.806 734.82 252.72 734.051 253.488C733.749 253.818 733.425 254.128 733.081 254.415C733.476 255.06 733.872 255.775 734.267 256.559C734.961 257.709 735.563 258.913 736.067 260.159C736.967 262.033 737.47 264.072 737.546 266.15C737.513 267.363 737.25 268.559 736.772 269.674C735.744 272.245 733.46 274.306 729.981 275.803C728.039 276.896 726.019 277.845 723.938 278.642L723.904 278.654C722.211 279.216 720.439 279.499 718.655 279.494C718.075 279.494 717.478 279.466 716.882 279.407C712.968 279.39 709.066 279.85 705.263 280.777L705.229 280.785L705.195 280.791L693.202 282.909H693.115C691.423 282.929 689.74 283.154 688.102 283.58L688.038 283.596L687.972 283.602C686.135 283.791 684.316 284.132 682.535 284.622L682.435 284.652L682.326 284.66C681.726 284.698 681.133 284.718 680.559 284.718C677.877 284.767 675.215 284.241 672.753 283.176C669.642 281.802 667.045 279.48 665.334 276.541C664.161 275.126 662.984 273.595 661.834 271.983L661.814 271.955C660.914 270.601 659.889 269.12 658.683 267.427L658.665 267.401L646.055 248.49C641.9 242.258 637.545 235.9 633.108 229.59L633.066 229.529L633.034 229.461C632.984 229.361 632.934 229.272 632.887 229.183L630.57 226.374L629.37 225.174C629.026 224.895 628.591 224.752 628.149 224.774C628.005 224.835 627.875 224.926 627.77 225.041C627.664 225.157 627.584 225.294 627.536 225.443L626.152 231.679C625.702 233.912 625.474 236.184 625.471 238.462C625.705 244.757 625.705 251.138 625.471 257.429L624.771 276.329C624.771 279.618 623.961 282.088 622.371 283.672C621.041 285.006 618.796 285.901 615.512 286.404H615.474C609.039 287.115 602.57 287.469 596.096 287.464L594.336 287.468ZM594.336 285.468H596.085C598.01 285.468 599.929 285.437 601.843 285.375C602.018 285.308 602.195 285.24 602.374 285.169V285.04C608.735 282.534 615.915 281.415 622.474 279.205C622.673 278.251 622.768 277.279 622.756 276.305V276.269L623.247 262.975C622.906 263.231 622.57 263.494 622.239 263.764C622.062 264.009 621.865 264.24 621.651 264.455C621.426 264.676 621.181 264.877 620.919 265.055C620.728 265.209 620.528 265.352 620.319 265.482C620.212 265.589 620.105 265.696 619.999 265.805C618.405 267.439 617.061 269.297 615.488 270.947C611.996 274.768 607.597 277.646 602.697 279.314V279.414C595.997 281.342 589.783 283.071 583.077 285.001L582.619 285.135C586.56 285.35 590.477 285.459 594.33 285.459L594.336 285.468ZM569.358 282.857C569.691 283.079 570.025 283.279 570.358 283.457C573.665 281.404 576.739 278.833 580.094 276.827C585.557 273.556 591.761 271.781 597.894 270.05C599.637 269.561 600.717 269.25 602.371 268.789V268.694C602.992 268.517 603.601 268.298 604.192 268.039C601.383 268.172 598.549 268.239 595.692 268.239H593.939C587.615 268.239 581.197 267.954 574.686 267.385C573.89 267.521 573.09 267.655 572.286 267.785C569.986 268.159 567.661 268.509 565.407 269.102C565.456 270.302 565.506 271.495 565.556 272.683L566.243 276.113C566.342 276.611 566.464 277.135 566.609 277.683C567.202 277.566 567.79 277.425 568.371 277.249C574.098 275.526 578.692 270.649 584.632 269.963C585.281 269.888 586.458 269.757 586.847 270.283C581.247 271.575 577.072 276.217 571.827 278.575C570.379 279.203 568.881 279.709 567.348 280.088C567.75 281.174 568.443 282.128 569.352 282.847L569.358 282.857ZM673.526 281.34L673.556 281.352C675.112 282.042 676.77 282.471 678.465 282.623C679.853 282.479 681.233 282.263 682.598 281.977C685.633 281.277 688.442 279.783 691.472 279.045C695.486 278.066 699.758 278.445 703.713 277.252C709.432 275.529 714.038 270.652 719.972 269.966C720.619 269.891 721.797 269.76 722.184 270.286C716.908 271.503 712.892 275.698 708.061 278.15C710.153 277.792 712.266 277.565 714.387 277.471C714.731 277.251 715.077 277.036 715.426 276.827C720.893 273.556 727.105 271.781 733.237 270.05L734.552 269.68C734.686 269.439 734.805 269.189 734.907 268.934C735.291 268.055 735.506 267.111 735.54 266.153C735.494 264.7 735.185 263.268 734.626 261.927C725.739 264.371 716.726 266.327 707.626 267.787C704.488 268.179 701.393 268.864 698.383 269.834C694.448 271.261 690.883 273.761 686.756 274.529C682.595 275.299 679.105 277.429 674.942 278.174C673.224 278.48 671.484 278.642 669.76 278.881C670.857 279.916 672.13 280.745 673.52 281.33L673.526 281.34ZM663.459 270.84C664.273 271.98 665.102 273.079 665.93 274.121C668.149 271.937 670.58 269.98 673.186 268.277C674.758 267.289 676.427 266.435 677.945 265.377C676.178 265.208 674.451 264.755 672.829 264.034C672.152 263.75 671.5 263.411 670.879 263.02C668.526 264.346 665.766 264.809 663.341 265.991C662.547 266.387 661.779 266.832 661.041 267.324C661.937 268.591 662.733 269.75 663.453 270.83L663.459 270.84ZM676.645 273.585C676.766 273.571 676.883 273.563 676.996 273.548C680.947 273.107 684.763 271.853 688.205 269.865C690.96 268.352 693.72 266.846 696.473 265.327C698.014 264.432 699.614 263.644 701.263 262.968C705.05 261.508 709.209 261.236 713.148 260.286C710.312 260.463 707.498 260.896 704.739 261.578L692.816 263.678C691.042 263.695 689.276 263.93 687.559 264.378C687.19 264.419 686.829 264.464 686.474 264.512C682.815 267.091 679.509 270.137 676.64 273.574L676.645 273.585ZM659.33 264.82C661.097 263.92 663.019 263.349 664.853 262.583C666.027 262.088 667.174 261.533 668.29 260.92C667.349 259.949 666.52 258.875 665.818 257.72C665.713 257.594 665.609 257.468 665.505 257.34C662.622 258.657 659.668 259.815 656.658 260.81L659.33 264.82ZM565.175 263.273C565.423 263.166 565.673 263.066 565.925 262.973C566.038 262.929 566.151 262.887 566.264 262.846C566.121 262.549 565.997 262.243 565.893 261.931C565.52 260.815 565.222 259.775 564.999 258.81C565.052 260.272 565.111 261.765 565.17 263.262L565.175 263.273ZM647.705 247.386L652.677 254.843C654.177 254.467 655.677 254.087 657.167 253.671C658.694 253.245 660.21 252.778 661.716 252.271C660.937 251.12 660.084 249.897 659.158 248.601L654.983 242.34C654.254 242.702 653.538 243.095 652.84 243.525C651.496 244.245 650.202 245.056 648.969 245.953C648.492 246.345 648.011 246.733 647.528 247.119L647.705 247.386ZM645.305 243.808C646.739 242.474 648.325 241.315 650.03 240.353C650.93 239.874 651.865 239.481 652.772 239.031L649.882 234.696C647.566 236.578 645.335 238.576 643.139 240.609C643.864 241.669 644.583 242.732 645.298 243.797L645.305 243.808ZM640.505 236.758C641.97 235.307 643.405 233.825 644.777 232.289C645.443 231.542 646.1 230.783 646.783 230.051L646.53 229.671C644.993 227.366 643.441 225.06 641.872 222.754C641.783 222.863 641.696 222.972 641.609 223.082C640.958 223.888 640.329 224.714 639.618 225.462C639.398 225.695 639.173 225.917 638.939 226.141C638.25 226.798 637.521 227.417 636.831 228.088C636.358 228.543 635.908 229.021 635.473 229.513C637.164 231.917 638.841 234.329 640.504 236.747L640.505 236.758ZM624.627 229.237L625.588 224.907L625.606 224.857C625.756 224.379 626.02 223.944 626.375 223.591C626.73 223.237 627.165 222.974 627.643 222.826L627.796 222.776H627.955C628.466 222.744 628.978 222.816 629.46 222.986C629.943 223.156 630.386 223.422 630.764 223.767L631.764 224.767C632.337 224.158 632.919 223.558 633.49 222.957C635.144 221.228 636.799 219.497 638.455 217.766C636.995 215.65 635.522 213.534 634.037 211.418C632.106 214.665 629.975 217.79 627.657 220.773C626.868 221.911 625.946 222.952 624.912 223.873C624.801 223.966 624.688 224.056 624.573 224.144C624.607 225.834 624.625 227.528 624.626 229.226L624.627 229.237ZM625.155 212.972C624.891 214.284 624.7 215.61 624.584 216.943C625.071 216.383 625.546 215.812 626.015 215.237C627.165 213.901 628.166 212.442 628.999 210.889C629.614 209.696 630.148 208.429 630.699 207.183L629.699 206.183C629.379 205.875 628.977 205.667 628.542 205.583C627.931 207.477 627.036 209.268 625.889 210.894C625.764 211.055 625.638 211.212 625.511 211.367L625.155 212.972ZM688.519 175.772L688.944 175.543L688.444 175.662L688.519 175.772ZM683.294 167.442L683.594 167.931C688.643 166.199 692.027 165.431 698.331 163.849C700.03 163.333 701.78 163.006 703.55 162.874C704.232 162.867 705.779 162.61 709.95 162.286C711.225 161.146 712.434 159.934 713.57 158.656C712.911 158.742 712.248 158.789 711.583 158.794C711.398 158.794 711.212 158.794 711.037 158.782C710.996 158.78 710.957 158.765 710.926 158.739C710.894 158.713 710.872 158.678 710.863 158.638C710.853 158.599 710.857 158.557 710.873 158.519C710.889 158.482 710.917 158.451 710.952 158.431C712.475 157.578 714.044 156.81 715.652 156.131C716.043 155.617 716.424 155.096 716.794 154.566C717.987 152.738 719.115 150.831 720.178 148.847L718.42 149.347C717.169 149.65 715.962 150.117 714.831 150.733C713.709 151.41 712.788 152.379 711.688 153.087C708.845 154.935 705.224 154.87 701.913 155.572C700.335 155.935 698.782 156.402 697.266 156.972C691.914 158.872 686.917 161.535 681.845 163.997C681.997 165.255 682.5 166.445 683.298 167.431L683.294 167.442ZM717.618 136.618C715.766 139.284 713.631 141.742 711.252 143.951C712.617 142.975 713.994 142.018 715.422 141.163C718.614 139.316 721.996 137.821 725.51 136.705C726.479 133.898 727.196 131.011 727.651 128.077C725.694 128.556 723.736 129.01 721.779 129.437C720.896 131.16 719.963 132.832 718.979 134.455C719.305 134.388 719.635 134.337 719.968 134.302C720.615 134.231 721.793 134.096 722.18 134.622C720.644 134.996 719.167 135.579 717.789 136.354L717.618 136.618ZM726.377 118.755C726.306 118.955 726.234 119.155 726.161 119.355L726.8 119.155L728.5 118.611C728.652 115.794 728.681 112.934 728.585 110.06C728.106 113.014 727.367 115.92 726.376 118.745L726.377 118.755ZM629.356 107.898C629.487 108.671 629.771 109.41 630.192 110.071C630.612 110.733 631.161 111.303 631.806 111.749C633.256 112.306 634.809 112.545 636.36 112.449C638.387 112.116 640.384 111.626 642.335 110.984C644.143 110.366 645.898 109.605 647.584 108.707C651.118 106.587 654.514 104.245 657.752 101.697C658.717 100.954 659.598 100.109 660.38 99.1757C659.651 98.1566 658.868 97.178 658.032 96.2446C656.373 94.3567 654.493 92.6752 652.432 91.2358C650.376 89.8124 648.155 88.6439 645.817 87.7558L645.803 87.7499C641.114 85.8862 636.288 84.3905 631.367 83.2768C630.861 83.3726 630.402 83.6381 630.067 84.0297L629.954 84.1425L629.811 84.2158C629.525 84.3382 629.27 84.5214 629.063 84.7529C628.855 84.9843 628.701 85.2583 628.611 85.5556V87.0556L628.511 87.2665C628.332 87.6701 628.246 88.1093 628.261 88.5507C628.497 93.4677 628.732 98.5268 628.961 103.589V103.635C628.961 104.401 628.963 105.168 628.968 105.935L629.356 107.898ZM559.098 98.2875L559.229 98.2128V97.8408L558.345 87.686L558.183 87.7856L559.098 98.2875ZM659.528 94.9169C660.184 95.6563 660.787 96.3853 661.336 97.1039C661.552 96.9826 661.77 96.8649 661.99 96.7509C662.103 96.5309 662.21 96.3086 662.31 96.0839C663.462 94.121 664.065 91.884 664.054 89.6078C662.09 90.9228 660.014 92.0646 657.99 93.2836C658.517 93.8016 659.029 94.343 659.528 94.9077V94.9169ZM646.528 85.8876C648.894 86.788 651.147 87.9591 653.244 89.3769C654.359 88.6972 655.431 87.9505 656.456 87.1415C657.675 86.1485 658.756 84.9997 659.95 83.9677C660.667 83.3527 661.416 82.7786 662.179 82.2236C661.116 80.4082 659.865 78.7096 658.447 77.1557C657.666 76.2696 656.838 75.4259 655.967 74.6279C655.692 74.8239 655.419 75.024 655.148 75.228C654.9 75.409 654.662 75.5919 654.433 75.7739C654.204 75.9559 653.977 76.1249 653.76 76.2939C653.331 76.6479 652.92 76.9866 652.513 77.3246C651.697 78.0056 650.903 78.7066 649.954 79.5146C649.208 80.1516 648.463 80.7928 647.721 81.4228C646.414 82.5448 645.101 83.6668 643.882 84.8798C644.775 85.1965 645.658 85.5292 646.531 85.8779L646.528 85.8876ZM631.565 81.27L631.674 81.2939C633.718 81.7606 635.735 82.2825 637.724 82.8598L639.088 81.437C640.117 80.2629 641.265 79.1977 642.512 78.2587C644.299 77.0357 646.133 76.7335 647.672 75.2245C649.057 73.8185 650.686 72.6777 652.481 71.8578C650.877 70.7622 649.176 69.8166 647.398 69.0336C646.183 69.3876 644.966 69.7407 643.761 70.1337C641.849 70.7647 639.969 71.4998 638.095 72.2338C636.538 72.7744 635.211 73.829 634.333 75.2245C633.109 77.3823 631.768 79.4714 630.315 81.4819C630.679 81.3427 631.066 81.2709 631.456 81.27H631.565ZM627.6 77.5117C628.12 76.7833 628.588 76.019 629 75.2245C630.9 71.5475 632.015 67.1658 635.4 64.9018C634.034 64.5298 632.651 64.1834 631.251 63.8627C631.112 64.0854 630.975 64.309 630.842 64.5336C629.365 67.0416 628.651 70.0875 627.381 72.7465C627.454 74.3165 627.528 75.9016 627.603 77.5009L627.6 77.5117Z" fill="#E321D7"/>
<path d="M502.143 477.894V474.675C502.143 465.538 502.664 439.475 503.805 421.515C503.991 419.057 504.01 415.232 504.336 411.743C500.87 413.137 497.156 413.812 493.421 413.726C489.58 413.726 486.052 413.103 484.284 412.17C485.631 414.041 486.325 416.302 486.26 418.606C486.26 425.979 481.172 434.906 476.707 434.906C476.049 434.871 475.41 434.672 474.849 434.328C474.287 433.984 473.82 433.505 473.489 432.935C472.54 431.682 471.9 430.224 471.619 428.678C471.363 427.273 471.224 425.849 471.204 424.421C471.211 421.636 471.687 418.872 472.613 416.245C465.078 424.259 454.613 434.282 445.971 434.282C444.374 434.31 442.8 433.916 441.405 433.138C439.673 432.301 438.215 430.987 437.203 429.351C436.191 427.714 435.668 425.822 435.694 423.898C435.694 421.198 436.631 418.086 438.81 414.452C441.718 409.882 445.763 405.938 449.295 405.938C450.094 405.954 450.879 406.16 451.583 406.539C452.287 406.918 452.89 407.459 453.344 408.117C453.913 408.938 454.205 409.92 454.175 410.918C454.175 415.489 448.256 420.779 442.337 420.779C441.531 420.779 440.729 420.675 439.95 420.47C439.516 421.849 439.271 423.281 439.224 424.727C439.224 428.259 440.988 431.27 445.453 431.893L446.492 431.992C454.84 431.992 466.814 420.106 474.786 411.687C475.123 411.144 475.486 410.608 475.875 410.087L475.77 409.776C475.838 409.277 476.069 408.814 476.426 408.458C476.783 408.102 477.246 407.872 477.746 407.805C477.959 407.788 478.172 407.822 478.369 407.904C483.749 410.507 489.625 411.924 495.6 412.059C498.632 412.119 501.647 411.579 504.47 410.47C504.925 406.694 505.834 403.594 507.853 403.541L508.371 403.44C508.892 403.44 509.825 404.165 510.14 408.94L510.347 409.564C510.347 411.018 508.787 411.434 508.168 411.434H507.96L506.506 432.096C506.921 432.096 512.217 409.565 522.706 408.419L523.847 408.318C528.621 408.318 530.076 411.744 530.076 415.484C530.035 417.422 529.72 419.345 529.143 421.195C534.359 419.589 543.843 414.395 547.849 410.486C548.129 388.406 551.849 364.102 553.649 359.208C554.374 357.236 555.311 356.407 556.036 356.407C557.389 356.407 558.428 358.692 558.428 362.118C558.428 362.844 557.075 363.468 556.244 363.468L555.828 363.367C553.056 380.153 551.564 397.126 551.364 414.138C551.364 427.638 552.717 439.785 556.864 444.975C557.187 445.458 557.618 445.86 558.123 446.148C558.628 446.437 559.193 446.604 559.773 446.637C564.03 446.637 568.494 436.669 571.504 430.437C572.824 427.655 574.273 424.659 575.878 421.566C576.409 419.04 577.39 416.628 578.772 414.447C581.68 409.877 585.73 405.934 589.257 405.934C590.056 405.95 590.841 406.155 591.545 406.534C592.249 406.913 592.852 407.454 593.306 408.112C593.876 408.932 594.167 409.915 594.137 410.913C594.137 415.484 588.218 420.774 582.303 420.774C581.497 420.774 580.695 420.67 579.916 420.465C579.479 421.844 579.234 423.276 579.188 424.722C579.188 428.254 580.952 431.265 585.416 431.888L586.455 431.987C595.385 431.987 608.465 418.388 616.355 409.978C616.566 409.736 616.862 409.587 617.182 409.562C617.332 409.55 617.482 409.598 617.599 409.694C617.715 409.791 617.789 409.93 617.805 410.08C617.805 410.256 617.769 410.43 617.698 410.592C617.627 410.753 617.523 410.898 617.394 411.018C610.123 418.909 596.626 434.273 585.933 434.273C584.335 434.302 582.759 433.907 581.363 433.129C580.047 432.487 578.885 431.568 577.956 430.437C577.027 429.305 576.354 427.985 575.981 426.569C575.186 428.257 574.426 429.898 573.681 431.47C569.115 440.709 565.273 449.015 559.663 449.015C550.639 449.015 547.833 432.22 547.829 413.132C542.829 417.632 534.337 421.522 528.414 423.889C528.414 423.889 524.984 431.989 521.249 434.582C520.506 435.163 519.597 435.491 518.654 435.52C517.093 435.52 516.059 434.17 516.059 432.403C516.059 428.871 520.002 424.72 525.196 422.643C526.008 420.159 526.462 417.572 526.545 414.96C526.545 412.679 525.922 410.702 523.95 410.702C515.85 411.639 510.242 426.276 508.27 434.895C504.946 449.845 504.531 465.834 504.531 477.88C504.539 478.032 504.515 478.183 504.46 478.325C504.405 478.467 504.321 478.596 504.214 478.703C504.106 478.811 503.978 478.895 503.836 478.949C503.694 479.004 503.541 479.028 503.39 479.021C503.233 479.03 503.078 479.009 502.93 478.957C502.782 478.905 502.645 478.825 502.529 478.72C502.413 478.615 502.319 478.488 502.253 478.346C502.187 478.204 502.149 478.05 502.143 477.894ZM518.031 432.313C518.031 432.936 518.341 433.353 518.654 433.353C520.939 433.353 522.911 428.783 524.259 425.253C519.484 428.057 518.031 430.859 518.031 432.313ZM474.524 425.563C474.524 429.405 475.669 432.313 477.539 432.313C478.472 432.313 479.612 431.584 480.859 430.028C483.194 427.11 484.475 423.489 484.493 419.752C484.493 415.597 482.835 411.962 479.612 410.821C476.364 415.055 474.58 420.228 474.524 425.563ZM580.948 418.297C581.498 418.381 582.054 418.414 582.61 418.396C587.49 418.396 591.747 414.454 591.747 411.752C591.751 411.365 591.646 410.985 591.444 410.654C591.243 410.324 590.952 410.057 590.606 409.883C590.332 409.688 590.005 409.579 589.669 409.572C586.972 409.575 582.924 413.934 580.948 418.297ZM440.99 418.297C441.54 418.381 442.096 418.414 442.652 418.396C447.533 418.396 451.79 414.454 451.79 411.752C451.794 411.364 451.688 410.984 451.485 410.653C451.283 410.323 450.991 410.056 450.645 409.883C450.372 409.688 450.046 409.579 449.711 409.572C447.011 409.575 442.96 413.934 440.99 418.297ZM368.936 473.322C368.623 468.03 368.516 462.213 368.516 456.192C368.681 430.682 370.311 405.202 373.397 379.878C374.126 375.206 376.204 369.083 378.485 369.083L378.9 369.183C379.731 369.497 380.045 370.532 380.045 372.092C379.905 374.807 379.416 377.493 378.591 380.084C378.519 380.339 378.371 380.565 378.166 380.732C377.961 380.9 377.71 381.001 377.446 381.021L377.136 380.916C375.995 389.846 374.436 402.616 373.193 417.88C402.572 415.904 432.786 402.721 436.318 371.985C436.491 370.539 436.561 369.084 436.526 367.628C436.526 352.571 427.079 341.772 411.086 339.906C409.945 339.8 408.699 339.698 407.452 339.698C389.076 339.698 358.761 352.886 352.634 369.29C351.896 371.068 351.509 372.97 351.493 374.895C351.493 380.916 356.267 384.032 359.593 388.081C360.229 388.769 360.629 389.642 360.734 390.573C360.749 390.754 360.723 390.936 360.66 391.106C360.597 391.277 360.499 391.431 360.371 391.56C360.243 391.688 360.088 391.787 359.918 391.85C359.748 391.912 359.566 391.937 359.385 391.923C358.149 391.764 357.008 391.176 356.162 390.261C351.079 385.589 348.793 380.293 348.793 375.103C348.793 370.122 350.973 365.24 354.814 360.983C367.275 347.276 388.454 338.347 406.414 338.347C420.533 338.347 432.681 343.747 437.145 356.727C438.384 360.259 438.982 363.984 438.909 367.727C438.941 369.253 438.872 370.78 438.701 372.297C434.966 404.276 403.607 419.433 372.876 421.403C371.837 434.072 371.006 447.882 371.006 460.445C371.006 464.912 371.111 469.169 371.319 473.217V473.316C371.318 473.62 371.196 473.911 370.981 474.125C370.767 474.339 370.477 474.46 370.174 474.462C369.862 474.464 369.561 474.347 369.331 474.136C369.101 473.925 368.96 473.633 368.936 473.322Z" fill="white"/>
</svg>
